<?xml version="1.0" encoding="utf-8"?><svg xmlns="http://www.w3.org/2000/svg" xmlns:xlink="http://www.w3.org/1999/xlink"><symbol fill="none" viewBox="0 0 32 32" id="accord" xmlns="http://www.w3.org/2000/svg"><path d="m26.56 11.933-8.694 8.693a2.648 2.648 0 0 1-3.733 0l-8.694-8.693" stroke="#2E3449" stroke-width="3" stroke-miterlimit="10" stroke-linecap="round" stroke-linejoin="round"/></symbol><symbol fill="none" viewBox="0 0 24 24" id="akar-icons_glasses" xmlns="http://www.w3.org/2000/svg"><path d="M6 18a4 4 0 1 0 0-8 4 4 0 0 0 0 8Zm12 0a4 4 0 1 0 0-8 4 4 0 0 0 0 8Z" stroke="#024FFA" stroke-width="1.5" stroke-linecap="round" stroke-linejoin="round"/><path d="m10 14 .211-.106a4 4 0 0 1 3.578 0L14 14m5-8 2.838 6.623c.107.249.162.517.162.788V14M5 6l-2.838 6.623A2 2 0 0 0 2 13.41V14" stroke="#024FFA" stroke-width="1.5" stroke-linecap="round" stroke-linejoin="round"/></symbol><symbol fill="none" viewBox="0 0 16 17" id="arrow-down" xmlns="http://www.w3.org/2000/svg"><path d="M10.033 13.78 5.687 9.434a1.324 1.324 0 0 1 0-1.867l4.346-4.347" stroke="currentColor" stroke-width="1.5" stroke-miterlimit="10" stroke-linecap="round" stroke-linejoin="round"/></symbol><symbol viewBox="0 0 40 40" id="banner-btn-left" xmlns="http://www.w3.org/2000/svg"><path d="M20 36.667c-9.205 0-16.667-7.462-16.667-16.667 0-9.205 7.462-16.666 16.667-16.666 9.205 0 16.667 7.461 16.667 16.666S29.205 36.667 20 36.667Z" stroke="#024FFA" stroke-width="1.5" stroke-miterlimit="10" stroke-linecap="round" stroke-linejoin="round"/><path d="M17.9 25.883 23.767 20 17.9 14.117"/></symbol><symbol viewBox="0 0 40 40" id="banner-btn-right" xmlns="http://www.w3.org/2000/svg"><path d="M20 36.667c9.205 0 16.667-7.462 16.667-16.667 0-9.205-7.462-16.666-16.667-16.666-9.205 0-16.667 7.461-16.667 16.666S10.795 36.667 20 36.667Z" stroke="#024FFA" stroke-width="1.5" stroke-miterlimit="10" stroke-linecap="round" stroke-linejoin="round"/><path d="M22.1 25.883 16.233 20l5.867-5.883"/></symbol><symbol fill="none" viewBox="0 0 32 32" id="basil_vk-solid" xmlns="http://www.w3.org/2000/svg"><path d="M28.67 24.508h-3.04c-1.151 0-1.498-.932-3.56-2.996-1.803-1.737-2.565-1.953-3.02-1.953-.631 0-.803.173-.803 1.041v2.736c0 .74-.24 1.174-2.174 1.174A11.868 11.868 0 0 1 6.8 18.95 24.24 24.24 0 0 1 2 8.872c0-.456.173-.87 1.043-.87h3.04c.781 0 1.062.349 1.369 1.153 1.476 4.344 3.995 8.123 5.017 8.123.392 0 .563-.174.563-1.151v-4.475c-.13-2.041-1.213-2.213-1.213-2.952a.75.75 0 0 1 .78-.697h4.778c.654 0 .87.325.87 1.106v6.04c0 .653.28.868.477.868.392 0 .693-.215 1.412-.933a25.014 25.014 0 0 0 3.736-6.213 1.31 1.31 0 0 1 1.324-.867h3.041c.912 0 1.106.456.912 1.107a37.955 37.955 0 0 1-4.082 7.016c-.328.5-.459.76 0 1.347.301.456 1.368 1.346 2.084 2.193a13.538 13.538 0 0 1 2.562 3.56c.262.848-.174 1.281-1.042 1.281Z" fill="#024FFA"/></symbol><symbol fill="none" viewBox="0 0 24 24" id="calendar" xmlns="http://www.w3.org/2000/svg"><path d="M8 2v3m8-3v3M3.5 9.09h17m.5-.59V17c0 3-1.5 5-5 5H8c-3.5 0-5-2-5-5V8.5c0-3 1.5-5 5-5h8c3.5 0 5 2 5 5Z" stroke="currentColor" stroke-width="1.5" stroke-miterlimit="10" stroke-linecap="round" stroke-linejoin="round"/><path d="M15.695 13.7h.009m-.009 3h.009m-3.709-3h.01m-.01 3h.01m-3.711-3h.01m-.01 3h.01" stroke="currentColor" stroke-width="2" stroke-linecap="round" stroke-linejoin="round"/></symbol><symbol fill="none" viewBox="0 0 24 24" id="calendar-inside-news" xmlns="http://www.w3.org/2000/svg"><path d="m21.93 6.76-3.37 13.53A2.228 2.228 0 0 1 16.38 22H3.24c-1.51 0-2.59-1.48-2.14-2.93L5.31 5.55a2.25 2.25 0 0 1 2.14-1.59h12.3c.95 0 1.74.58 2.07 1.38.19.43.23.92.11 1.42Z" stroke="#024FFA" stroke-width="1.5" stroke-miterlimit="10"/><path d="M16 22h4.78c1.29 0 2.3-1.09 2.21-2.38L22 6m-12.32.38 1.04-4.32m5.66 4.33.94-4.34M7.7 12h8m-9 4h8" stroke="#024FFA" stroke-width="1.5" stroke-miterlimit="10" stroke-linecap="round" stroke-linejoin="round"/></symbol><symbol fill="none" viewBox="0 0 40 40" id="document-cloud" xmlns="http://www.w3.org/2000/svg"><path d="M23.332 3.333h-8.333C6.665 3.333 3.332 6.668 3.332 15v10c0 8.334 3.333 11.667 11.667 11.667m21.665-20v5m.001-5H30c-5 0-6.667-1.667-6.667-6.667V3.333l13.333 13.334Z" stroke="#024FFA" stroke-width="2" stroke-linecap="round" stroke-linejoin="round"/><path d="M22.934 30.433c-3.917.284-3.917 5.95 0 6.234H32.2a4.51 4.51 0 0 0 3.034-1.167c2.75-2.4 1.283-7.2-2.334-7.65-1.3-7.817-12.6-4.85-9.933 2.6" stroke="#024FFA" stroke-width="2" stroke-miterlimit="10" stroke-linecap="round" stroke-linejoin="round"/></symbol><symbol fill="none" viewBox="0 0 24 24" id="dowload-sqr" xmlns="http://www.w3.org/2000/svg"><path d="M9 22h6c5 0 7-2 7-7V9c0-5-2-7-7-7H9C4 2 2 4 2 9v6c0 5 2 7 7 7Z" stroke="#2E3449" stroke-width="1.5" stroke-linecap="round" stroke-linejoin="round"/><path d="m9 11.51 3 3 3-3m-3 3v-8m-6 10c3.89 1.3 8.11 1.3 12 0" stroke="#2E3449" stroke-width="1.5" stroke-linecap="round" stroke-linejoin="round"/></symbol><symbol fill="none" viewBox="0 0 32 32" id="exs" xmlns="http://www.w3.org/2000/svg"><path d="m3.979 5.394 1.414-1.415L28.02 26.607l-1.414 1.414L3.979 5.394Z" fill="#2E3449"/><path d="m28.041 5.394-1.414-1.415L3.999 26.607l1.415 1.414L28.04 5.394Z" fill="#2E3449"/></symbol><symbol fill="none" viewBox="0 0 24 24" id="eye" xmlns="http://www.w3.org/2000/svg"><path d="M15.58 12c0 1.98-1.6 3.58-3.58 3.58S8.42 13.98 8.42 12s1.6-3.58 3.58-3.58 3.58 1.6 3.58 3.58Z" stroke="#024FFA" stroke-width="1.5" stroke-linecap="round" stroke-linejoin="round"/><path d="M12 20.27c3.53 0 6.82-2.08 9.11-5.68.9-1.41.9-3.78 0-5.19-2.29-3.6-5.58-5.68-9.11-5.68-3.53 0-6.82 2.08-9.11 5.68-.9 1.41-.9 3.78 0 5.19 2.29 3.6 5.58 5.68 9.11 5.68Z" stroke="#024FFA" stroke-width="1.5" stroke-linecap="round" stroke-linejoin="round"/></symbol><symbol fill="none" viewBox="0 0 56 56" id="faq-card-arrow" xmlns="http://www.w3.org/2000/svg"><path d="M28 51.333c12.887 0 23.333-10.447 23.333-23.333C51.333 15.113 40.887 4.666 28 4.666 15.113 4.666 4.667 15.113 4.667 28c0 12.886 10.446 23.333 23.333 23.333Z" fill="#024FFA"/><path d="M25.06 36.236 33.273 28l-8.213-8.237" stroke="#fff" stroke-width="1.5" stroke-linecap="round" stroke-linejoin="round"/></symbol><symbol fill="none" viewBox="0 0 32 32" id="header-burger-x" xmlns="http://www.w3.org/2000/svg"><path fill="#024FFA" d="m3.375 5.289 1.414-1.415L28.124 27.21l-1.415 1.414z"/><path fill="#024FFA" d="m27.084 3.875 1.414 1.415L5.164 28.624 3.749 27.21z"/></symbol><symbol fill="none" viewBox="0 0 11 7" id="header-dropdown-arrow" xmlns="http://www.w3.org/2000/svg"><path d="m0 0 5.5 7L11 0H0Z" fill="#fff"/></symbol><symbol fill="none" viewBox="0 0 10 11" id="link-with-arrow" xmlns="http://www.w3.org/2000/svg"><mask id="apa" fill="#fff"><path d="m.5 5.5 4.634-5 4.633 5-4.633 5L.5 5.5Z"/></mask><path d="m9.767 5.5.68.733.68-.733-.68-.733-.68.733ZM4.454 1.233l4.633 5 1.36-1.466-4.634-5-1.36 1.466Zm4.633 3.534-4.633 5 1.36 1.466 4.633-5-1.36-1.466Z" fill="#024FFA" mask="url(#apa)"/></symbol><symbol fill="none" viewBox="0 0 24 24" id="location" xmlns="http://www.w3.org/2000/svg"><path d="M12 13.43a3.12 3.12 0 1 0 0-6.24 3.12 3.12 0 0 0 0 6.24Z" stroke="currentColor" stroke-width="1.5"/><path d="M3.62 8.49c1.97-8.66 14.8-8.65 16.76.01 1.15 5.08-2.01 9.38-4.78 12.04a5.194 5.194 0 0 1-7.21 0c-2.76-2.66-5.92-6.97-4.77-12.05Z" stroke="currentColor" stroke-width="1.5"/></symbol><symbol fill="none" viewBox="0 0 284 48" id="logo" xmlns="http://www.w3.org/2000/svg"><path d="M52.713 13.733V2.635h5.572c.53 0 1 .085 1.41.255.41.17.75.407 1.02.711.27.303.475.665.615 1.086.14.42.21.886.21 1.397 0 .51-.066.99-.201 1.437a3.335 3.335 0 0 1-.6 1.158c-.264.325-.602.58-1.012.766-.41.187-.891.28-1.442.28h-3.742v4.008h-1.83Zm1.83-9.437v3.736h3.11c.713 0 1.234-.157 1.563-.471.33-.314.495-.806.495-1.477 0-.639-.176-1.097-.527-1.373-.351-.277-.861-.415-1.53-.415h-3.11Zm16.296 9.437h-8.23V2.635h8.279l-.535 1.677h-5.929V7.01h5.394v1.693h-5.394v3.353h6.415v1.677Zm3.288-5.541c0 .628.046 1.192.138 1.692.091.5.26.926.502 1.278a2.3 2.3 0 0 0 1.02.806c.438.186 1.007.28 1.71.28.496 0 .934-.056 1.312-.168.377-.112.74-.349 1.085-.71l1.215 1.117a4.29 4.29 0 0 1-1.653 1.102 5.695 5.695 0 0 1-1.96.335c-.94 0-1.74-.138-2.405-.415-.664-.277-1.207-.665-1.628-1.165-.421-.5-.732-1.1-.931-1.797-.2-.697-.3-1.472-.3-2.323v-.591c0-.81.116-1.536.348-2.18a4.367 4.367 0 0 1 1.02-1.637 4.403 4.403 0 0 1 1.653-1.021c.653-.235 1.401-.352 2.243-.352.66 0 1.302.107 1.928.32A4.21 4.21 0 0 1 81.076 3.8l-1.23 1.23c-.346-.34-.703-.575-1.07-.703a3.9 3.9 0 0 0-1.28-.191c-1.155 0-2.005.3-2.55.902-.546.601-.819 1.477-.819 2.627v.527Zm15.615 5.541V4.312h-5.2v9.42h-1.83V2.636h8.86v11.098h-1.83Zm7.533-3.242a1.814 1.814 0 0 1-.672-.431 2.443 2.443 0 0 1-.462-.655L92.982 2.89l1.766-.463 2.85 5.86a.652.652 0 0 0 .211.264.57.57 0 0 0 .308.072l2.818-6.196 1.702.447-4.31 9.47c-.086.202-.18.396-.283.582a2.074 2.074 0 0 1-.388.503 1.788 1.788 0 0 1-.576.36c-.226.09-.507.135-.842.135-.184 0-.37-.024-.559-.072a8.66 8.66 0 0 0-.542-.12V12.28h.55c.249 0 .457-.034.624-.103.167-.07.305-.227.413-.471l.55-1.214Zm15.291-.207c0 1.17-.324 2.038-.972 2.602-.648.565-1.534.847-2.657.847h-5.167V2.635h7.678l-.551 1.677h-5.296V7.01h3.417c1.134 0 2.009.277 2.624.83.616.554.924 1.368.924 2.444Zm-1.766 0c0-.618-.178-1.038-.535-1.262-.356-.224-.88-.335-1.571-.335h-3.093v3.385h3.012c.335 0 .637-.03.908-.088.269-.058.499-.154.688-.287a1.29 1.29 0 0 0 .437-.543c.103-.23.154-.52.154-.87Zm3.58 3.64a1.68 1.68 0 0 1-.745-.191v-1.501c.453 0 .78-.136.98-.408.2-.27.332-.588.397-.95.032-.18.062-.38.089-.598.027-.219.051-.466.073-.743l.567-6.898h6.592v11.098h-1.83V4.312h-3.094l-.502 5.604-.073.551a14.54 14.54 0 0 1-.105.647 7.73 7.73 0 0 1-.235.982 3.409 3.409 0 0 1-.429.91 2.302 2.302 0 0 1-.681.663c-.27.17-.604.255-1.004.255Zm17.3-.191V5.429l-5.605 8.304h-1.782V2.635h1.831v8.24l5.556-8.24h1.83v11.098h-1.83Zm5.621-11.098v4.662h.875l3.11-4.662h2.041l-3.499 5.381 4.179 5.717h-2.122l-3.661-5.014h-.923v5.014h-1.831V2.635h1.831Zm11.193 6.371h3.386l-1.474-3.72-.26-1.246-.259 1.246-1.393 3.72Zm-.551 1.565-1.182 3.162h-1.928l4.196-11.098h2.187l4.406 11.098h-1.896l-1.247-3.162h-4.536Zm10.74-1.901v5.046h-1.815V2.62h1.815v4.36h5.378V2.62h1.83v11.098h-1.83V8.67h-5.378Zm10.707-.478c0 .628.046 1.192.138 1.692.091.5.259.926.502 1.278a2.3 2.3 0 0 0 1.02.806c.438.186 1.007.28 1.709.28.497 0 .935-.056 1.313-.168.377-.112.739-.349 1.085-.71l1.215 1.117a4.295 4.295 0 0 1-1.653 1.102 5.69 5.69 0 0 1-1.96.335c-.939 0-1.741-.138-2.405-.415-.664-.277-1.207-.665-1.628-1.165a4.81 4.81 0 0 1-.932-1.797c-.199-.697-.299-1.472-.299-2.323v-.591c0-.81.116-1.536.348-2.18a4.358 4.358 0 0 1 1.021-1.637 4.4 4.4 0 0 1 1.652-1.021c.653-.235 1.401-.352 2.243-.352a5.96 5.96 0 0 1 1.928.32 4.21 4.21 0 0 1 1.652 1.037l-1.231 1.23c-.345-.34-.702-.575-1.069-.703a3.9 3.9 0 0 0-1.28-.191c-1.155 0-2.006.3-2.551.902-.545.601-.818 1.477-.818 2.627v.527Zm10.416-5.557v4.662h.874l3.11-4.662h2.041l-3.498 5.381 4.179 5.717h-2.122l-3.661-5.014h-.923v5.014h-1.831V2.635h1.831Zm15.599 11.098V5.429l-5.605 8.304h-1.782V2.635h1.831v8.24l5.556-8.24h1.83v11.098h-1.83Zm11.177 0V5.429l-5.605 8.304h-1.782V2.635h1.831v8.24l5.556-8.24h1.83v11.098h-1.83Zm-2.883-11.785a3.75 3.75 0 0 1-.883-.103 2.232 2.232 0 0 1-.77-.344 1.77 1.77 0 0 1-.542-.607c-.135-.245-.203-.543-.203-.894h1.15c0 .32.122.546.365.679.242.133.537.2.883.2a1.9 1.9 0 0 0 .866-.192c.254-.128.381-.357.381-.687h1.15c0 .351-.071.652-.211.903-.14.25-.324.452-.55.606a2.33 2.33 0 0 1-.77.336 3.681 3.681 0 0 1-.866.103Zm19.324 10.108h1.069v3.96h-1.701v-2.283h-8.536V2.635h1.83v9.42h5.508v-9.42h1.83v9.42Zm11.048 1.677h-8.229V2.635h8.277l-.535 1.677h-5.928V7.01h5.394v1.693h-5.394v3.353h6.415v1.677Zm3.563-5.063v5.046h-1.814V2.62h1.814v4.36h5.378V2.62h1.831v11.098h-1.831V8.67h-5.378Zm13.85-4.358v9.42h-1.831v-9.42h-3.563V2.635h9.136l-.535 1.677h-3.207Zm4.908 9.421V2.635h5.573c.529 0 .999.085 1.409.255.41.17.75.407 1.021.711.269.303.475.665.615 1.086.141.42.211.886.211 1.397 0 .51-.068.99-.203 1.437a3.344 3.344 0 0 1-.599 1.158c-.265.325-.602.58-1.013.766-.41.187-.891.28-1.441.28h-3.742v4.008h-1.831Zm1.831-9.437v3.736h3.11c.713 0 1.234-.157 1.563-.471.329-.314.494-.806.494-1.477 0-.639-.175-1.097-.526-1.373-.351-.277-.861-.415-1.531-.415h-3.11ZM60.1 30.77v-8.303l-5.605 8.303h-1.782V19.673h1.83v8.24l5.556-8.24h1.83V30.77H60.1Zm5.604-5.061v5.046H63.89V19.657h1.814v4.36h5.378v-4.36h1.83v11.098h-1.83v-5.046h-5.378Zm13.818 5.061v-1.533c-.184.064-.4.118-.648.16a3.903 3.903 0 0 1-.648.064c-.638 0-1.197-.109-1.677-.327a3.314 3.314 0 0 1-1.199-.902 3.826 3.826 0 0 1-.713-1.35 5.783 5.783 0 0 1-.234-1.684v-.32c0-.607.078-1.168.234-1.684.157-.517.395-.966.713-1.35a3.316 3.316 0 0 1 1.199-.902c.48-.218 1.04-.327 1.677-.327.183 0 .4.024.648.072.248.048.464.098.648.151v-1.357h1.83v1.357c.183-.053.4-.103.648-.151a3.49 3.49 0 0 1 .648-.072c.637 0 1.196.109 1.676.327.48.218.88.519 1.199.902.319.384.556.833.713 1.35a5.8 5.8 0 0 1 .234 1.684v.32c0 .607-.078 1.168-.234 1.684a3.813 3.813 0 0 1-.713 1.35 3.31 3.31 0 0 1-1.199.902c-.48.218-1.04.327-1.676.327-.184 0-.4-.021-.648-.064a4.078 4.078 0 0 1-.648-.16v1.533h-1.83Zm5.247-5.524v-.416a3.72 3.72 0 0 0-.129-1.005 2.311 2.311 0 0 0-.397-.807 1.789 1.789 0 0 0-.696-.535 2.464 2.464 0 0 0-1.013-.192c-.453 0-.847.08-1.182.24v5.03c.173.096.359.16.559.192.2.032.397.047.59.047.4 0 .743-.063 1.03-.191.286-.128.518-.306.696-.535.178-.229.31-.5.397-.815.086-.313.135-.652.145-1.013Zm-8.666 0c.011.361.06.7.146 1.013.087.315.22.586.397.815a1.8 1.8 0 0 0 .689.535c.28.128.626.191 1.037.191.194 0 .39-.015.59-.047a1.7 1.7 0 0 0 .56-.192v-5.03c-.346-.16-.74-.24-1.183-.24a2.46 2.46 0 0 0-1.012.192 1.793 1.793 0 0 0-.697.535 2.31 2.31 0 0 0-.397.806c-.086.309-.13.644-.13 1.006v.416Zm16.977 5.716c-.908 0-1.704-.141-2.39-.423a4.567 4.567 0 0 1-1.709-1.19 5.127 5.127 0 0 1-1.028-1.82 7.342 7.342 0 0 1-.349-2.315v-.431c0-.778.135-1.494.405-2.148a4.821 4.821 0 0 1 1.134-1.677 5.235 5.235 0 0 1 1.733-1.086 6.016 6.016 0 0 1 2.203-.391c.8 0 1.534.13 2.203.391.67.261 1.245.623 1.725 1.086a4.871 4.871 0 0 1 1.126 1.677c.27.654.405 1.37.405 2.147v.432c0 .84-.113 1.612-.34 2.315a4.97 4.97 0 0 1-1.029 1.82 4.652 4.652 0 0 1-1.708 1.19c-.68.282-1.474.423-2.382.423Zm0-9.804c-1.189 0-2.082.33-2.681.99-.6.66-.9 1.549-.9 2.666v.367c0 .586.06 1.129.179 1.63.119.5.318.934.599 1.3.28.368.645.655 1.094.863.448.207 1.006.311 1.676.311.691 0 1.266-.098 1.725-.295.46-.197.826-.476 1.102-.838.275-.362.472-.796.591-1.302a7.312 7.312 0 0 0 .178-1.669v-.367c0-1.117-.3-2.006-.899-2.666-.6-.66-1.488-.99-2.665-.99Zm8.893-1.485v4.662h.874l3.11-4.662h2.041l-3.498 5.381 4.179 5.716h-2.122l-3.661-5.013h-.923v5.013h-1.831V19.673h1.831Zm13.347 11.289c-.907 0-1.704-.141-2.39-.423a4.567 4.567 0 0 1-1.709-1.19 5.134 5.134 0 0 1-1.028-1.82 7.348 7.348 0 0 1-.348-2.315v-.431c0-.778.135-1.494.405-2.148a4.808 4.808 0 0 1 1.133-1.677 5.24 5.24 0 0 1 1.734-1.086 6.01 6.01 0 0 1 2.203-.391c.799 0 1.533.13 2.203.391a5.15 5.15 0 0 1 1.725 1.086c.48.463.856 1.022 1.126 1.677.269.654.404 1.37.404 2.147v.432c0 .84-.113 1.612-.34 2.315a4.958 4.958 0 0 1-1.028 1.82 4.657 4.657 0 0 1-1.709 1.19c-.681.282-1.474.423-2.381.423Zm0-9.804c-1.188 0-2.082.33-2.681.99-.6.66-.899 1.549-.899 2.666v.367c0 .586.059 1.129.178 1.63.119.5.318.934.599 1.3.281.368.646.655 1.094.863.448.207 1.007.311 1.676.311.692 0 1.267-.098 1.725-.295a2.675 2.675 0 0 0 1.102-.838 3.41 3.41 0 0 0 .591-1.302 7.29 7.29 0 0 0 .178-1.669v-.367c0-1.117-.299-2.006-.899-2.666-.599-.66-1.487-.99-2.664-.99Zm7.062 9.612V19.673h2.463l3.158 7.76 3.159-7.76h2.414V30.77h-1.831v-8.368l-2.867 7.058h-1.766l-2.899-7.25v8.56h-1.831Zm13.153 0V19.673h2.462l3.159 7.76 3.159-7.76h2.414V30.77h-1.831v-8.368l-2.867 7.058h-1.766l-2.899-7.25v8.56h-1.831Zm16.895-3.241a1.816 1.816 0 0 1-.672-.431 2.452 2.452 0 0 1-.462-.655l-3.158-6.515 1.765-.463 2.851 5.86a.65.65 0 0 0 .211.264.568.568 0 0 0 .307.072l2.819-6.196 1.701.447-4.309 9.47a6.559 6.559 0 0 1-.283.582 2.1 2.1 0 0 1-.389.503 1.792 1.792 0 0 1-.575.36c-.227.09-.508.135-.842.135a2.27 2.27 0 0 1-.56-.072 8.507 8.507 0 0 0-.542-.12v-1.453h.551c.248 0 .456-.034.623-.104.168-.069.305-.226.413-.47l.551-1.214Zm8.309-1.82v5.046h-1.814V19.657h1.814v4.36h5.379v-4.36h1.83v11.098h-1.83v-5.046h-5.379Zm16.556 5.061v-8.303l-5.605 8.303h-1.782V19.673h1.831v8.24l5.556-8.24h1.83V30.77h-1.83Zm5.62-11.097v4.662h.875l3.11-4.662h2.041l-3.499 5.381 4.179 5.716H187.5l-3.661-5.013h-.924v5.013h-1.83V19.673h1.83Zm11.194 6.371h3.385l-1.474-3.72-.259-1.246-.259 1.246-1.393 3.72Zm-.551 1.565-1.183 3.161h-1.927l4.195-11.097h2.187l4.406 11.098h-1.895l-1.248-3.162h-4.535Zm17.575 1.485h1.07v3.96h-1.701V30.77h-8.537V19.673h1.831v9.42h5.507v-9.42h1.83v9.42Zm10.205 1.676v-8.303l-5.604 8.303h-1.782V19.673h1.83v8.24l5.556-8.24h1.831V30.77h-1.831Zm8.926.192c-.907 0-1.704-.141-2.39-.423a4.567 4.567 0 0 1-1.709-1.19 5.134 5.134 0 0 1-1.028-1.82 7.348 7.348 0 0 1-.349-2.315v-.431c0-.778.136-1.494.406-2.148a4.808 4.808 0 0 1 1.133-1.677 5.24 5.24 0 0 1 1.734-1.086 6.014 6.014 0 0 1 2.203-.391c.799 0 1.533.13 2.203.391a5.15 5.15 0 0 1 1.725 1.086c.48.463.856 1.022 1.126 1.677.269.654.405 1.37.405 2.147v.432c0 .84-.114 1.612-.341 2.315a4.972 4.972 0 0 1-1.028 1.82 4.657 4.657 0 0 1-1.709 1.19c-.681.282-1.474.423-2.381.423Zm0-9.804c-1.188 0-2.082.33-2.681.99-.6.66-.899 1.549-.899 2.666v.367c0 .586.059 1.129.178 1.63.119.5.318.934.599 1.3.281.368.646.655 1.094.863.448.207 1.007.311 1.676.311.692 0 1.267-.098 1.725-.295a2.675 2.675 0 0 0 1.102-.838 3.41 3.41 0 0 0 .591-1.302 7.29 7.29 0 0 0 .178-1.669v-.367c0-1.117-.299-2.006-.899-2.666-.599-.66-1.487-.99-2.664-.99Zm8.876 4.551v5.046h-1.814V19.657h1.814v4.36h5.378v-4.36h1.831v11.098h-1.831v-5.046h-5.378Zm10.983 0v5.046h-1.815V19.657h1.815v4.36h5.378v-4.36h1.83v11.098h-1.83v-5.046h-5.378Zm20.815-6.036V30.77h-1.83V19.672h1.83Zm-2.9 7.872c0 .553-.088 1.032-.267 1.437-.178.405-.429.74-.753 1.006a3.17 3.17 0 0 1-1.158.59 5.396 5.396 0 0 1-1.482.192h-5.087V19.673h1.831v4.503h3.515c1.144 0 1.998.295 2.559.886.562.59.842 1.418.842 2.483Zm-1.83-.112c0-.543-.13-.942-.389-1.197-.259-.256-.734-.384-1.425-.384h-3.272v3.242h3.191c.691 0 1.18-.144 1.466-.431.286-.288.429-.698.429-1.23Zm11.388-.59-2.916 3.927h-2.138l4.357-5.764-3.612-5.062 1.749-.463 2.22 3.05.712 1.421.713-1.421 2.219-3.05 1.749.463-3.612 5.062 4.358 5.764h-2.139l-2.931-3.927-.357-.863-.372.863ZM57.394 38.387v9.421h-1.83v-9.42H52V36.71h9.136l-.535 1.677h-3.207Zm13.137 9.421h-8.229V36.71h8.278l-.535 1.677h-5.928v2.699h5.394v1.692h-5.394v3.354h6.414v1.676Zm6.447-3.928-2.915 3.928h-2.139l4.358-5.764-3.613-5.062 1.75-.463 2.22 3.05.712 1.42.712-1.42 2.22-3.05 1.749.463-3.612 5.062 4.357 5.764H80.64l-2.932-3.928-.356-.862-.373.862Zm9.201-1.133v5.045h-1.815V36.695h1.815v4.359h5.378v-4.36h1.83v11.098h-1.83v-5.045h-5.378ZM100.482 48c-.907 0-1.703-.141-2.389-.423a4.566 4.566 0 0 1-1.709-1.19 5.129 5.129 0 0 1-1.028-1.82 7.342 7.342 0 0 1-.349-2.316v-.43c0-.778.135-1.494.405-2.148a4.819 4.819 0 0 1 1.134-1.677 5.235 5.235 0 0 1 1.733-1.086 6.014 6.014 0 0 1 2.203-.391c.799 0 1.534.13 2.203.391a5.13 5.13 0 0 1 1.725 1.086 4.873 4.873 0 0 1 1.126 1.676c.27.655.405 1.371.405 2.148v.431c0 .841-.113 1.613-.34 2.316a4.975 4.975 0 0 1-1.029 1.82 4.65 4.65 0 0 1-1.709 1.19c-.68.282-1.474.423-2.381.423Zm0-9.804c-1.188 0-2.082.33-2.68.99-.6.66-.9 1.549-.9 2.666v.367c0 .586.06 1.129.179 1.63.118.5.318.933.599 1.3.28.368.645.655 1.093.863.448.207 1.007.311 1.677.311.691 0 1.266-.098 1.725-.295a2.673 2.673 0 0 0 1.101-.839c.276-.361.473-.795.592-1.3a7.344 7.344 0 0 0 .178-1.67v-.367c0-1.117-.3-2.006-.899-2.666-.6-.66-1.488-.99-2.665-.99ZM107.836 48a1.68 1.68 0 0 1-.745-.192v-1.5c.453 0 .78-.136.98-.408.2-.271.332-.588.397-.95.032-.181.062-.38.089-.599.027-.218.051-.465.073-.742l.567-6.899h6.593v11.098h-1.831v-9.42h-3.094l-.502 5.604c-.021.17-.046.354-.073.551a14.54 14.54 0 0 1-.105.646c-.054.32-.132.647-.235.983a3.349 3.349 0 0 1-.429.91 2.302 2.302 0 0 1-.681.663c-.269.17-.604.255-1.004.255Zm15.049 0c-.908 0-1.704-.141-2.39-.423a4.569 4.569 0 0 1-1.709-1.19 5.135 5.135 0 0 1-1.028-1.82 7.348 7.348 0 0 1-.349-2.316v-.43c0-.778.135-1.494.406-2.148a4.807 4.807 0 0 1 1.133-1.677 5.23 5.23 0 0 1 1.734-1.086 6.01 6.01 0 0 1 2.203-.391c.799 0 1.533.13 2.203.391a5.15 5.15 0 0 1 1.725 1.086 4.9 4.9 0 0 1 1.126 1.676 5.6 5.6 0 0 1 .404 2.148v.431c0 .841-.113 1.613-.34 2.316a4.96 4.96 0 0 1-1.029 1.82 4.646 4.646 0 0 1-1.708 1.19c-.681.282-1.474.423-2.381.423Zm0-9.804c-1.188 0-2.082.33-2.681.99-.6.66-.899 1.549-.899 2.666v.367c0 .586.059 1.129.178 1.63.119.5.318.933.599 1.3.281.368.646.655 1.094.863.448.207 1.007.311 1.676.311.691 0 1.266-.098 1.725-.295a2.676 2.676 0 0 0 1.102-.839 3.41 3.41 0 0 0 .591-1.3 7.288 7.288 0 0 0 .178-1.67v-.367c0-1.117-.3-2.006-.899-2.666-.599-.66-1.488-.99-2.664-.99Zm7.062 9.612V36.71h7.402l-.55 1.677h-5.022v9.421h-1.83Zm15.761 0v-8.303l-5.605 8.303h-1.782V36.71h1.831v8.24l5.556-8.24h1.83v11.098h-1.83Zm11.177.001v-8.304l-5.605 8.303h-1.782V36.712h1.831v8.24l5.556-8.24h1.83V47.81h-1.83Zm-2.883-11.785c-.303 0-.597-.034-.883-.104a2.239 2.239 0 0 1-.77-.343 1.77 1.77 0 0 1-.542-.607c-.135-.245-.203-.543-.203-.894h1.15c0 .32.122.546.365.679s.537.2.883.2a1.9 1.9 0 0 0 .866-.192c.254-.128.381-.357.381-.687h1.15c0 .351-.07.652-.211.902-.14.25-.323.453-.55.607a2.32 2.32 0 0 1-.77.335 3.63 3.63 0 0 1-.866.104Z" fill="#2B2A29"/><path fill-rule="evenodd" clip-rule="evenodd" d="M0 6.056 10.241.228 27.98 10.323v20.19l-10.242 5.83V16.152L0 6.056Z" fill="#254896"/><path fill-rule="evenodd" clip-rule="evenodd" d="M10.241 16.152 0 21.98v20.191L10.241 48V16.152Z" fill="#3CAB3D"/><path fill-rule="evenodd" clip-rule="evenodd" d="M38.938.227h2.173V48h-2.173V.227Z" fill="#D9DADA"/></symbol><symbol fill="none" viewBox="0 0 16 17" id="logo-platform" xmlns="http://www.w3.org/2000/svg"><path d="M0 .5h15.2L7.733 7.826 0 14.9V.5Zm16 16H.8l7.467-7.326L16 2.1v14.4Z" fill="#B8B4B4"/></symbol><symbol fill="none" viewBox="0 0 130 50" id="logoshort" xmlns="http://www.w3.org/2000/svg"><path fill-rule="evenodd" clip-rule="evenodd" d="M0 6.545 11.336 0l19.635 11.336v22.672l-11.336 6.545V17.881L0 6.545Z" fill="#004494"/><path fill-rule="evenodd" clip-rule="evenodd" d="M11.336 14.238 0 20.783v22.672L11.336 50V14.238Z" fill="#2CA72A"/><path fill-rule="evenodd" clip-rule="evenodd" d="M43.007 22.686v-6.823h11.285v6.823H43.007Zm0 11.285v-6.758h13.548l2.231-2.264V13.632l-2.23-2.296H38.48V33.97h4.527Zm41.292 4.527v-9.054h-2.295V11.336h-4.495v18.108H66.224V11.336h-4.527V33.97h18.075v4.527H84.3Zm7.114-4.527 11.285-15.1v15.1h4.495V11.336h-4.495L91.413 26.404V11.336h-4.527V33.97h4.527Zm30.493 0V15.863h7.857v-4.527h-20.307v4.527h7.923v18.108h4.527Z" fill="#fff"/></symbol><symbol fill="none" viewBox="0 0 32 20" id="menu-header" xmlns="http://www.w3.org/2000/svg"><path fill="#024FFA" d="M0 0h32v2H0zm2 9h30v2H2zm3 9h27v2H5z"/></symbol><symbol fill="none" viewBox="0 0 60 60" id="monitor" xmlns="http://www.w3.org/2000/svg"><path d="M55 29.725v2.225c0 8.9-2.225 11.1-11.1 11.1H16.1C7.225 43.05 5 40.825 5 31.95V16.1C5 7.225 7.225 5 16.1 5H20m10 38.05V55M5 32.5h50M18.75 55h22.5" stroke="#fff" stroke-width="2" stroke-linecap="round" stroke-linejoin="round"/><path d="M44.65 23.425h-11.9c-3.45 0-4.6-2.3-4.6-4.6v-8.8c0-2.75 2.25-5 5-5h11.5c2.55 0 4.6 2.05 4.6 4.6v9.2c0 2.55-2.05 4.6-4.6 4.6Zm7.625-3.625-3.025-2.125v-6.9l3.025-2.125c1.5-1.025 2.725-.4 2.725 1.425V18.4c0 1.825-1.225 2.45-2.725 1.4Z" stroke="#fff" stroke-width="2" stroke-linecap="round" stroke-linejoin="round"/></symbol><symbol fill="none" viewBox="0 0 32 32" id="ok-solid" xmlns="http://www.w3.org/2000/svg"><g clip-path="url(#awa)"><path d="M16 0a8.267 8.267 0 0 0-8.258 8.26 8.267 8.267 0 0 0 8.26 8.256 8.266 8.266 0 0 0 8.257-8.256A8.266 8.266 0 0 0 16.002 0H16Zm0 4.84a3.423 3.423 0 0 1 3.42 3.42 3.424 3.424 0 0 1-3.418 3.419 3.424 3.424 0 0 1-3.42-3.419 3.423 3.423 0 0 1 3.42-3.419L16 4.84ZM9.076 16.8a2.419 2.419 0 0 0-1.213 4.467 15.48 15.48 0 0 0 4.796 1.986l-4.616 4.618a2.42 2.42 0 0 0 3.423 3.421L16 26.755l4.54 4.537a2.416 2.416 0 0 0 3.42 0 2.416 2.416 0 0 0 0-3.421l-4.617-4.616a15.458 15.458 0 0 0 4.795-1.987 2.42 2.42 0 1 0-2.576-4.097 10.49 10.49 0 0 1-11.12 0 2.402 2.402 0 0 0-1.366-.371Z" fill="#E89900"/></g><defs><clipPath id="awa"><path fill="#fff" d="M0 0h32v32H0z"/></clipPath></defs></symbol><symbol fill="none" viewBox="0 0 24 24" id="profile" xmlns="http://www.w3.org/2000/svg"><path d="M12.16 10.87c-.1-.01-.22-.01-.33 0a4.42 4.42 0 0 1-4.27-4.43C7.56 3.99 9.54 2 12 2a4.435 4.435 0 0 1 .16 8.87Zm-5 3.69c-2.42 1.62-2.42 4.26 0 5.87 2.75 1.84 7.26 1.84 10.01 0 2.42-1.62 2.42-4.26 0-5.87-2.74-1.83-7.25-1.83-10.01 0Z" stroke="#024FFA" stroke-width="1.5" stroke-linecap="round" stroke-linejoin="round"/></symbol><symbol fill="none" viewBox="0 0 24 24" id="search-normal" xmlns="http://www.w3.org/2000/svg"><path d="M11.5 21a9.5 9.5 0 1 0 0-19 9.5 9.5 0 0 0 0 19ZM22 22l-2-2" stroke="#024FFA" stroke-width="1.5" stroke-linecap="round" stroke-linejoin="round"/></symbol><symbol fill="none" viewBox="0 0 24 24" id="telegram" xmlns="http://www.w3.org/2000/svg"><path fill-rule="evenodd" clip-rule="evenodd" d="M24 12c0 6.627-5.373 12-12 12S0 18.627 0 12 5.373 0 12 0s12 5.373 12 12ZM12.43 8.859c-1.167.485-3.5 1.49-6.998 3.014-.568.226-.866.447-.893.663-.046.366.412.51 1.034.705.085.027.173.054.263.084.613.199 1.437.432 1.865.441.389.008.823-.152 1.302-.48 3.268-2.207 4.955-3.322 5.06-3.346.076-.017.18-.039.25.024.07.062.063.18.056.212-.046.193-1.84 1.862-2.77 2.726-.29.269-.495.46-.537.504-.094.097-.19.19-.282.279-.57.548-.996.96.024 1.632.49.323.882.59 1.273.856.427.291.853.581 1.405.943.14.092.274.187.405.28.497.355.944.673 1.496.623.32-.03.652-.331.82-1.23.397-2.126 1.179-6.73 1.36-8.628a2.106 2.106 0 0 0-.02-.472.506.506 0 0 0-.172-.325c-.143-.117-.365-.142-.465-.14-.451.008-1.143.249-4.476 1.635Z" fill="#B8B4B4"/></symbol><symbol fill="none" viewBox="0 0 24 24" id="upload-check" xmlns="http://www.w3.org/2000/svg"><path d="M9 22h6c5 0 7-2 7-7V9c0-5-2-7-7-7H9C4 2 2 4 2 9v6c0 5 2 7 7 7Z" stroke="#37C239" stroke-width="1.5" stroke-linecap="round" stroke-linejoin="round"/><path d="m8 10.98 3.53 3.52 5.5-5.5" stroke="#37C239" stroke-width="1.5" stroke-linecap="round" stroke-linejoin="round"/></symbol><symbol fill="none" viewBox="0 0 24 24" id="upload-sqr" xmlns="http://www.w3.org/2000/svg"><path d="M9 22h6c5 0 7-2 7-7V9c0-5-2-7-7-7H9C4 2 2 4 2 9v6c0 5 2 7 7 7Z" stroke="#2E3449" stroke-width="1.5" stroke-linecap="round" stroke-linejoin="round"/><path d="m9 9.51 3-3 3 3m-3-3v8m-6 2c3.89 1.3 8.11 1.3 12 0" stroke="#2E3449" stroke-width="1.5" stroke-linecap="round" stroke-linejoin="round"/></symbol><symbol viewBox="0 0 40 40" id="uslugi-left-arrow" xmlns="http://www.w3.org/2000/svg"><path d="M20 3.333c9.205 0 16.667 7.462 16.667 16.667 0 9.205-7.462 16.666-16.667 16.666-9.205 0-16.667-7.461-16.667-16.666S10.795 3.333 20 3.333Z" stroke="currentColor" stroke-width="1.5" stroke-miterlimit="10" stroke-linecap="round" stroke-linejoin="round"/><path d="M22.1 14.117 16.233 20l5.867 5.883"/></symbol><symbol viewBox="0 0 40 40" id="uslugi-right-arrow" xmlns="http://www.w3.org/2000/svg"><path d="M20 3.333C10.795 3.333 3.333 10.795 3.333 20c0 9.205 7.462 16.666 16.667 16.666 9.205 0 16.667-7.461 16.667-16.666S29.205 3.333 20 3.333Z" stroke="currentColor" stroke-width="1.5" stroke-miterlimit="10" stroke-linecap="round" stroke-linejoin="round"/><path d="M17.9 14.117 23.767 20 17.9 25.883"/></symbol><symbol fill="none" viewBox="0 0 109 70" id="uzor-m" xmlns="http://www.w3.org/2000/svg"><g clip-path="url(#bea)" fill-rule="evenodd" clip-rule="evenodd"><path d="M109 0v2.137h-2.123V0H109Zm-9.767 0v2.137H97.11V0h2.123Zm-9.766 0v2.137h-2.124V0h2.124ZM79.7 0v2.137h-2.124V0H79.7ZM109 9.832v2.137h-2.123V9.832H109Zm-9.767 0v2.137H97.11V9.832h2.123Zm-9.766 0v2.137h-2.124V9.832h2.124Zm-9.767 0v2.137h-2.124V9.832H79.7ZM109 19.45v2.138h-2.123V19.45H109Zm-9.767 0v2.138H97.11V19.45h2.123Zm-9.766 0v2.138h-2.124V19.45h2.124Zm-9.767 0v2.138h-2.124V19.45H79.7Zm29.3 9.832v2.138h-2.123v-2.138H109Zm-9.767.001v2.137H97.11v-2.137h2.123Zm-9.766-.001v2.138h-2.124v-2.138h2.124Zm-9.767 0v2.138h-2.124v-2.138H79.7ZM70.211 0v2.137h-2.123V0h2.123Zm-9.766 0v2.137h-2.123V0h2.123Zm-9.767 0v2.137h-2.123V0h2.123Zm-9.767 0v2.137h-2.123V0h2.123Zm29.3 9.832v2.137h-2.123V9.832h2.123Zm-9.766 0v2.137h-2.123V9.832h2.123Zm-9.767 0v2.137h-2.123V9.832h2.123Zm-9.767 0v2.137h-2.123V9.832h2.123Zm29.3 9.618v2.138h-2.123V19.45h2.123Zm-9.766 0v2.138h-2.123V19.45h2.123Zm-9.767 0v2.138h-2.123V19.45h2.123Zm-9.767 0v2.138h-2.123V19.45h2.123Zm29.3 9.833v2.137h-2.123v-2.137h2.123Zm-9.766-.001v2.138h-2.123v-2.138h2.123Zm-9.767.001v2.137h-2.123v-2.137h2.123Zm-9.767 0v2.137h-2.123v-2.137h2.123Z" fill="#D8D8D8"/><path d="M31.423 0v2.137H29.3V0h2.123Z" fill="#D7D7D8"/><path d="M21.657 0v2.137h-2.123V0h2.123ZM11.89 0v2.137H9.767V0h2.123ZM2.123 0v2.137H0V0h2.123Zm29.3 9.832v2.137H29.3V9.832h2.123Zm-9.766 0v2.137h-2.123V9.832h2.123Zm-9.767 0v2.137H9.767V9.832h2.123Zm-9.767 0v2.137H0V9.832h2.123Zm29.3 9.618v2.138H29.3V19.45h2.123Zm-9.766 0v2.138h-2.123V19.45h2.123Zm-9.767 0v2.138H9.767V19.45h2.123Zm-9.767 0v2.138H0V19.45h2.123Zm29.3 9.832v2.138H29.3v-2.138h2.123Zm-9.766.001v2.137h-2.123v-2.137h2.123Zm-9.767-.001v2.138H9.767v-2.138h2.123Zm-9.767 0v2.138H0v-2.138h2.123ZM109 38.784v2.137h-2.123v-2.137H109Zm-9.767 0v2.137H97.11v-2.137h2.123Zm-9.766 0v2.137h-2.124v-2.137h2.124Zm-9.767 0v2.137h-2.124v-2.137H79.7Zm29.3 9.832v2.137h-2.123v-2.137H109Zm-9.767 0v2.137H97.11v-2.137h2.123Zm-9.766 0v2.137h-2.124v-2.137h2.124Zm-9.767 0v2.137h-2.124v-2.137H79.7Zm29.3 9.618v2.137h-2.123v-2.137H109Zm-9.767 0v2.138H97.11v-2.138h2.123Zm-9.766 0v2.137h-2.124v-2.137h2.124Zm-9.767 0v2.137h-2.124v-2.137H79.7Zm29.3 9.832v2.137h-2.123v-2.137H109Zm-9.767 0v2.138H97.11v-2.138h2.123Zm-9.766 0v2.137h-2.124v-2.137h2.124Zm-9.767 0v2.137h-2.124v-2.137H79.7Z" fill="#D8D8D8"/><path d="M70.211 38.784v2.137h-2.123v-2.137h2.123Z" fill="#D7D7D7"/><path d="M60.445 38.784v2.137h-2.123v-2.137h2.123Zm-9.767 0v2.137h-2.123v-2.137h2.123Zm-9.767 0v2.137h-2.123v-2.137h2.123Zm29.3 9.832v2.137h-2.123v-2.137h2.123Zm-9.766 0v2.137h-2.123v-2.137h2.123Zm-9.767 0v2.137h-2.123v-2.137h2.123Zm-9.767 0v2.137h-2.123v-2.137h2.123Zm29.3 9.618v2.138h-2.123v-2.138h2.123Zm-9.766 0v2.137h-2.123v-2.137h2.123Zm-9.767 0v2.138h-2.123v-2.138h2.123Zm-9.767 0v2.138h-2.123v-2.138h2.123Zm29.3 9.832v2.138h-2.123v-2.138h2.123Zm-9.766 0v2.137h-2.123v-2.137h2.123Zm-9.767 0v2.138h-2.123v-2.138h2.123Zm-9.767 0v2.138h-2.123v-2.138h2.123ZM21.657 38.784v2.137h-2.123v-2.137h2.123Zm-9.767 0v2.137H9.767v-2.137h2.123Zm-9.767 0v2.137H0v-2.137h2.123Zm19.534 9.832v2.137h-2.123v-2.137h2.123Zm-9.767 0v2.137H9.767v-2.137h2.123Zm-9.767 0v2.137H0v-2.137h2.123Zm19.534 9.618v2.138h-2.123v-2.138h2.123Zm-9.767 0v2.137H9.767v-2.137h2.123Zm-9.767 0v2.137H0v-2.137h2.123Zm19.534 9.832v2.138h-2.123v-2.138h2.123Zm-9.767 0v2.137H9.767v-2.137h2.123Zm-9.767 0v2.137H0v-2.137h2.123Z" fill="#D8D8D8"/><path d="M29.208 48.616h2.138v2.123h-2.138v-2.123Zm0 9.747h2.138v2.123h-2.138v-2.123Zm0 9.747h2.138v2.122h-2.138V68.11Z" fill="#01114A"/><path d="M29.244 38.987h2.137v2.123h-2.137v-2.123Z" fill="#00BCE8"/></g><defs><clipPath id="bea"><path fill="#fff" d="M0 0h109v70H0z"/></clipPath></defs></symbol><symbol fill="none" viewBox="0 0 160 100" id="uzor-t" xmlns="http://www.w3.org/2000/svg"><g clip-path="url(#bfa)" fill-rule="evenodd" clip-rule="evenodd"><path d="M160 0v3.053h-3.117V0H160Zm-14.336 0v3.053h-3.117V0h3.117Zm-14.337 0v3.053h-3.117V0h3.117ZM116.99 0v3.053h-3.116V0h3.116ZM160 14.046v3.053h-3.117v-3.053H160Zm-14.336 0v3.053h-3.117v-3.053h3.117Zm-14.337 0v3.053h-3.117v-3.053h3.117Zm-14.337 0v3.053h-3.116v-3.053h3.116ZM160 27.786v3.054h-3.117v-3.054H160Zm-14.336 0v3.054h-3.117v-3.054h3.117Zm-14.337 0v3.054h-3.117v-3.054h3.117Zm-14.337 0v3.054h-3.116v-3.054h3.116ZM160 41.832v3.053h-3.117v-3.053H160Zm-14.336 0v3.053h-3.117v-3.053h3.117Zm-14.337 0v3.053h-3.117v-3.053h3.117Zm-14.337 0v3.053h-3.116v-3.053h3.116ZM103.063 0v3.053h-3.117V0h3.117ZM88.727 0v3.053H85.61V0h3.117ZM74.39 0v3.053h-3.116V0h3.116ZM60.053 0v3.053h-3.116V0h3.116Zm43.01 14.046v3.053h-3.117v-3.053h3.117Zm-14.336 0v3.053H85.61v-3.053h3.117Zm-14.337 0v3.053h-3.116v-3.053h3.116Zm-14.337 0v3.053h-3.116v-3.053h3.116Zm43.01 13.74v3.054h-3.117v-3.054h3.117Zm-14.336 0v3.054H85.61v-3.054h3.117Zm-14.337 0v3.054h-3.116v-3.054h3.116Zm-14.337 0v3.054h-3.116v-3.054h3.116Zm43.01 14.046v3.053h-3.117v-3.053h3.117Zm-14.336 0v3.053H85.61v-3.053h3.117Zm-14.337 0v3.053h-3.116v-3.053h3.116Zm-14.337 0v3.053h-3.116v-3.053h3.116Z" fill="#D8D8D8"/><path d="M46.126 0v3.053H43.01V0h3.116Z" fill="#D7D7D8"/><path d="M31.79 0v3.053h-3.117V0h3.117ZM17.453 0v3.053h-3.117V0h3.117ZM3.117 0v3.053H0V0h3.117Zm43.009 14.046v3.053H43.01v-3.053h3.116Zm-14.336 0v3.053h-3.117v-3.053h3.117Zm-14.337 0v3.053h-3.117v-3.053h3.117Zm-14.336 0v3.053H0v-3.053h3.117Zm43.009 13.74v3.054H43.01v-3.054h3.116Zm-14.336 0v3.054h-3.117v-3.054h3.117Zm-14.337 0v3.054h-3.117v-3.054h3.117Zm-14.336 0v3.054H0v-3.054h3.117Zm43.009 14.046v3.053H43.01v-3.053h3.116Zm-14.336 0v3.053h-3.117v-3.053h3.117Zm-14.337 0v3.053h-3.117v-3.053h3.117Zm-14.336 0v3.053H0v-3.053h3.117ZM160 55.405v3.054h-3.117v-3.054H160Zm-14.336 0v3.054h-3.117v-3.054h3.117Zm-14.337 0v3.054h-3.117v-3.054h3.117Zm-14.337 0v3.054h-3.116v-3.054h3.116ZM160 69.451v3.054h-3.117V69.45H160Zm-14.336 0v3.054h-3.117V69.45h3.117Zm-14.337 0v3.054h-3.117V69.45h3.117Zm-14.337 0v3.054h-3.116V69.45h3.116ZM160 83.191v3.054h-3.117V83.19H160Zm-14.336.001v3.053h-3.117v-3.053h3.117Zm-14.337-.001v3.054h-3.117V83.19h3.117Zm-14.337 0v3.054h-3.116V83.19h3.116ZM160 97.237v3.054h-3.117v-3.054H160Zm-14.336 0v3.054h-3.117v-3.054h3.117Zm-14.337 0v3.054h-3.117v-3.054h3.117Zm-14.337 0v3.054h-3.116v-3.054h3.116Z" fill="#D8D8D8"/><path d="M103.063 55.405v3.054h-3.117v-3.054h3.117Z" fill="#D7D7D7"/><path d="M88.727 55.405v3.054H85.61v-3.054h3.117Zm-14.337 0v3.054h-3.116v-3.054h3.116Zm-14.337 0v3.054h-3.116v-3.054h3.116Zm43.01 14.046v3.054h-3.117V69.45h3.117Zm-14.336 0v3.054H85.61V69.45h3.117Zm-14.337 0v3.054h-3.116V69.45h3.116Zm-14.337 0v3.054h-3.116V69.45h3.116Zm43.01 13.741v3.053h-3.117v-3.053h3.117Zm-14.336-.001v3.054H85.61V83.19h3.117Zm-14.337.001v3.053h-3.116v-3.053h3.116Zm-14.337 0v3.053h-3.116v-3.053h3.116Zm43.01 14.045v3.054h-3.117v-3.054h3.117Zm-14.336 0v3.054H85.61v-3.054h3.117Zm-14.337 0v3.054h-3.116v-3.054h3.116Zm-14.337 0v3.054h-3.116v-3.054h3.116ZM31.79 55.405v3.054h-3.117v-3.054h3.117Zm-14.337 0v3.054h-3.117v-3.054h3.117Zm-14.336 0v3.054H0v-3.054h3.117ZM31.79 69.451v3.054h-3.117V69.45h3.117Zm-14.337 0v3.054h-3.117V69.45h3.117Zm-14.336 0v3.054H0V69.45h3.117ZM31.79 83.192v3.053h-3.117v-3.053h3.117Zm-14.337-.001v3.054h-3.117V83.19h3.117Zm-14.336 0v3.054H0V83.19h3.117ZM31.79 97.237v3.054h-3.117v-3.054h3.117Zm-14.337 0v3.054h-3.117v-3.054h3.117Zm-14.336 0v3.054H0v-3.054h3.117Z" fill="#D8D8D8"/><path d="M42.874 69.451h3.138v3.033h-3.138v-3.033Zm0 13.924h3.138v3.033h-3.138v-3.033Zm0 13.925h3.138v3.032h-3.138v-3.033Z" fill="#01114A"/><path d="M42.927 55.696h3.138v3.033h-3.138v-3.033Z" fill="#00BCE8"/></g><defs><clipPath id="bfa"><path fill="#fff" d="M0 0h160v100H0z"/></clipPath></defs></symbol><symbol fill="none" viewBox="0 0 24 24" id="vk" xmlns="http://www.w3.org/2000/svg"><path d="M15.683 0H8.316C1.594 0 0 1.594 0 8.316v7.367C0 22.407 1.594 24 8.316 24h7.367C22.406 24 24 22.406 24 15.684V8.316C24 1.594 22.39 0 15.683 0Zm3.692 17.12h-1.742c-.66 0-.864-.523-2.05-1.726-1.032-1-1.489-1.132-1.743-1.132-.36 0-.461.1-.461.593v1.575c0 .422-.133.675-1.25.675-1.848 0-3.899-1.117-5.337-3.199-2.168-3.05-2.76-5.336-2.76-5.809 0-.254.1-.491.589-.491h1.745c.442 0 .61.203.782.675.863 2.492 2.3 4.676 2.894 4.676.22 0 .32-.102.32-.66V9.723c-.066-1.188-.691-1.29-.691-1.711 0-.203.168-.406.437-.406h2.746c.371 0 .508.203.508.64v3.472c0 .375.168.508.269.508.219 0 .406-.133.812-.54 1.254-1.405 2.152-3.573 2.152-3.573.117-.255.32-.492.762-.492h1.746c.524 0 .64.269.524.644-.22 1.015-2.356 4.03-2.356 4.03-.184.305-.254.438 0 .778.188.254.797.781 1.203 1.254.746.847 1.32 1.558 1.473 2.05.172.489-.082.743-.574.743h.002Z" fill="#B8B4B4"/></symbol><symbol fill="none" viewBox="0 0 32 32" id="vk-solid" xmlns="http://www.w3.org/2000/svg"><path d="M28.67 24.508h-3.04c-1.151 0-1.498-.932-3.56-2.996-1.803-1.737-2.565-1.953-3.02-1.953-.631 0-.803.173-.803 1.041v2.736c0 .74-.24 1.174-2.174 1.174A11.868 11.868 0 0 1 6.8 18.95 24.24 24.24 0 0 1 2 8.872c0-.456.173-.87 1.043-.87h3.04c.781 0 1.062.349 1.369 1.153 1.476 4.344 3.995 8.123 5.017 8.123.392 0 .563-.174.563-1.151v-4.475c-.13-2.041-1.213-2.213-1.213-2.952a.75.75 0 0 1 .78-.697h4.778c.654 0 .87.325.87 1.106v6.04c0 .653.28.868.477.868.392 0 .693-.215 1.412-.933a25.014 25.014 0 0 0 3.736-6.213 1.31 1.31 0 0 1 1.324-.867h3.041c.912 0 1.106.456.912 1.107a37.955 37.955 0 0 1-4.082 7.016c-.328.5-.459.76 0 1.347.301.456 1.368 1.346 2.084 2.193a13.538 13.538 0 0 1 2.562 3.56c.262.848-.174 1.281-1.042 1.281Z" fill="#024FFA"/></symbol><symbol fill="none" viewBox="0 0 24 24" id="whatsapp" xmlns="http://www.w3.org/2000/svg"><path fill-rule="evenodd" clip-rule="evenodd" d="M17.499 14.382c-.3-.149-1.768-.867-2.041-.967-.273-.099-.472-.148-.672.15-.2.296-.77.966-.945 1.164-.175.199-.348.223-.647.075-.298-.15-1.26-.463-2.401-1.475-.888-.788-1.487-1.761-1.661-2.059-.174-.297-.02-.458.13-.606.135-.133.299-.347.448-.52.15-.174.2-.298.299-.497.1-.198.05-.371-.025-.52-.075-.149-.671-1.612-.92-2.207-.243-.579-.489-.5-.672-.51a12.98 12.98 0 0 0-.573-.01c-.199 0-.522.074-.795.372-.275.297-1.045 1.016-1.045 2.479 0 1.462 1.069 2.875 1.218 3.074.15.198 2.106 3.2 5.1 4.487.714.306 1.27.489 1.703.625.716.227 1.367.195 1.881.118.573-.085 1.767-.719 2.016-1.413.248-.694.248-1.289.174-1.413-.075-.124-.274-.198-.573-.347Zm-5.448 7.403h-.004a9.954 9.954 0 0 1-5.057-1.378l-.361-.214-3.76.982 1.004-3.648-.237-.374a9.826 9.826 0 0 1-1.518-5.26c.002-5.45 4.457-9.884 9.937-9.884a9.885 9.885 0 0 1 7.021 2.898 9.822 9.822 0 0 1 2.157 3.207 9.8 9.8 0 0 1 .75 3.786c-.003 5.45-4.458 9.885-9.932 9.885Zm8.452-18.297A11.875 11.875 0 0 0 16.628.901 11.922 11.922 0 0 0 12.05 0C5.464 0 .102 5.335.1 11.892a11.82 11.82 0 0 0 1.595 5.945L0 24l6.334-1.654a11.983 11.983 0 0 0 5.712 1.448h.005c6.585 0 11.947-5.335 11.949-11.893a11.771 11.771 0 0 0-.902-4.555 11.817 11.817 0 0 0-2.595-3.858Z" fill="#B8B4B4"/></symbol></svg>