<svg width="109" height="70" viewBox="0 0 109 70" fill="none" xmlns="http://www.w3.org/2000/svg">
<g clip-path="url(#clip0_1663_5354)">
<path fill-rule="evenodd" clip-rule="evenodd" d="M109 0L109 2.1374L106.877 2.1374L106.877 -9.27974e-08L109 0Z" fill="#D8D8D8"/>
<path fill-rule="evenodd" clip-rule="evenodd" d="M99.2334 0L99.2334 2.1374L97.1102 2.1374L97.1102 -9.27867e-08L99.2334 0Z" fill="#D8D8D8"/>
<path fill-rule="evenodd" clip-rule="evenodd" d="M89.4666 0L89.4666 2.1374L87.3433 2.1374L87.3433 -9.27867e-08L89.4666 0Z" fill="#D8D8D8"/>
<path fill-rule="evenodd" clip-rule="evenodd" d="M79.6997 0L79.6997 2.1374L77.5765 2.1374L77.5765 -9.27867e-08L79.6997 0Z" fill="#D8D8D8"/>
<path fill-rule="evenodd" clip-rule="evenodd" d="M109 9.83203L109 11.9694L106.877 11.9694L106.877 9.83203L109 9.83203Z" fill="#D8D8D8"/>
<path fill-rule="evenodd" clip-rule="evenodd" d="M99.2334 9.83203L99.2334 11.9694L97.1102 11.9694L97.1102 9.83203L99.2334 9.83203Z" fill="#D8D8D8"/>
<path fill-rule="evenodd" clip-rule="evenodd" d="M89.4666 9.83203L89.4666 11.9694L87.3433 11.9694L87.3433 9.83203L89.4666 9.83203Z" fill="#D8D8D8"/>
<path fill-rule="evenodd" clip-rule="evenodd" d="M79.6997 9.83203L79.6997 11.9694L77.5765 11.9694L77.5765 9.83203L79.6997 9.83203Z" fill="#D8D8D8"/>
<path fill-rule="evenodd" clip-rule="evenodd" d="M109 19.4502L109 21.5876L106.877 21.5876L106.877 19.4502L109 19.4502Z" fill="#D8D8D8"/>
<path fill-rule="evenodd" clip-rule="evenodd" d="M99.2334 19.4502L99.2334 21.5876L97.1102 21.5876L97.1102 19.4502L99.2334 19.4502Z" fill="#D8D8D8"/>
<path fill-rule="evenodd" clip-rule="evenodd" d="M89.4666 19.4502L89.4666 21.5876L87.3433 21.5876L87.3433 19.4502L89.4666 19.4502Z" fill="#D8D8D8"/>
<path fill-rule="evenodd" clip-rule="evenodd" d="M79.6997 19.4502L79.6997 21.5876L77.5765 21.5876L77.5765 19.4502L79.6997 19.4502Z" fill="#D8D8D8"/>
<path fill-rule="evenodd" clip-rule="evenodd" d="M109 29.2822L109 31.4196L106.877 31.4196L106.877 29.2822L109 29.2822Z" fill="#D8D8D8"/>
<path fill-rule="evenodd" clip-rule="evenodd" d="M99.2334 29.2827L99.2334 31.4201L97.1102 31.4201L97.1102 29.2827L99.2334 29.2827Z" fill="#D8D8D8"/>
<path fill-rule="evenodd" clip-rule="evenodd" d="M89.4666 29.2822L89.4666 31.4196L87.3433 31.4196L87.3433 29.2822L89.4666 29.2822Z" fill="#D8D8D8"/>
<path fill-rule="evenodd" clip-rule="evenodd" d="M79.6997 29.2822L79.6997 31.4196L77.5765 31.4196L77.5765 29.2822L79.6997 29.2822Z" fill="#D8D8D8"/>
<path fill-rule="evenodd" clip-rule="evenodd" d="M70.2114 0L70.2114 2.1374L68.0882 2.1374L68.0882 -9.27867e-08L70.2114 0Z" fill="#D8D8D8"/>
<path fill-rule="evenodd" clip-rule="evenodd" d="M60.4451 0L60.4451 2.1374L58.3219 2.1374L58.3219 -9.27867e-08L60.4451 0Z" fill="#D8D8D8"/>
<path fill-rule="evenodd" clip-rule="evenodd" d="M50.6785 0L50.6785 2.1374L48.5553 2.1374L48.5553 -9.27867e-08L50.6785 0Z" fill="#D8D8D8"/>
<path fill-rule="evenodd" clip-rule="evenodd" d="M40.9114 0L40.9114 2.1374L38.7882 2.1374L38.7882 -9.27867e-08L40.9114 0Z" fill="#D8D8D8"/>
<path fill-rule="evenodd" clip-rule="evenodd" d="M70.2114 9.83203L70.2114 11.9694L68.0882 11.9694L68.0882 9.83203L70.2114 9.83203Z" fill="#D8D8D8"/>
<path fill-rule="evenodd" clip-rule="evenodd" d="M60.4451 9.83203L60.4451 11.9694L58.3219 11.9694L58.3219 9.83203L60.4451 9.83203Z" fill="#D8D8D8"/>
<path fill-rule="evenodd" clip-rule="evenodd" d="M50.6785 9.83203L50.6785 11.9694L48.5553 11.9694L48.5553 9.83203L50.6785 9.83203Z" fill="#D8D8D8"/>
<path fill-rule="evenodd" clip-rule="evenodd" d="M40.9114 9.83203L40.9114 11.9694L38.7882 11.9694L38.7882 9.83203L40.9114 9.83203Z" fill="#D8D8D8"/>
<path fill-rule="evenodd" clip-rule="evenodd" d="M70.2114 19.4502L70.2114 21.5876L68.0882 21.5876L68.0882 19.4502L70.2114 19.4502Z" fill="#D8D8D8"/>
<path fill-rule="evenodd" clip-rule="evenodd" d="M60.4451 19.4502L60.4451 21.5876L58.3219 21.5876L58.3219 19.4502L60.4451 19.4502Z" fill="#D8D8D8"/>
<path fill-rule="evenodd" clip-rule="evenodd" d="M50.6785 19.4502L50.6785 21.5876L48.5553 21.5876L48.5553 19.4502L50.6785 19.4502Z" fill="#D8D8D8"/>
<path fill-rule="evenodd" clip-rule="evenodd" d="M40.9114 19.4502L40.9114 21.5876L38.7882 21.5876L38.7882 19.4502L40.9114 19.4502Z" fill="#D8D8D8"/>
<path fill-rule="evenodd" clip-rule="evenodd" d="M70.2114 29.2827L70.2114 31.4201L68.0882 31.4201L68.0882 29.2827L70.2114 29.2827Z" fill="#D8D8D8"/>
<path fill-rule="evenodd" clip-rule="evenodd" d="M60.4451 29.2822L60.4451 31.4196L58.3219 31.4196L58.3219 29.2822L60.4451 29.2822Z" fill="#D8D8D8"/>
<path fill-rule="evenodd" clip-rule="evenodd" d="M50.6785 29.2827L50.6785 31.4201L48.5553 31.4201L48.5553 29.2827L50.6785 29.2827Z" fill="#D8D8D8"/>
<path fill-rule="evenodd" clip-rule="evenodd" d="M40.9114 29.2827L40.9114 31.4201L38.7882 31.4201L38.7882 29.2827L40.9114 29.2827Z" fill="#D8D8D8"/>
<path fill-rule="evenodd" clip-rule="evenodd" d="M31.4233 0L31.4233 2.1374L29.3001 2.1374L29.3001 -9.27867e-08L31.4233 0Z" fill="#D7D7D8"/>
<path fill-rule="evenodd" clip-rule="evenodd" d="M21.6567 0L21.6567 2.1374L19.5335 2.1374L19.5335 -9.27867e-08L21.6567 0Z" fill="#D8D8D8"/>
<path fill-rule="evenodd" clip-rule="evenodd" d="M11.8899 0L11.8899 2.1374L9.76669 2.1374L9.76669 -9.27867e-08L11.8899 0Z" fill="#D8D8D8"/>
<path fill-rule="evenodd" clip-rule="evenodd" d="M2.12329 0L2.12329 2.1374L8.62141e-05 2.1374L8.63075e-05 -9.27867e-08L2.12329 0Z" fill="#D8D8D8"/>
<path fill-rule="evenodd" clip-rule="evenodd" d="M31.4233 9.83203L31.4233 11.9694L29.3001 11.9694L29.3001 9.83203L31.4233 9.83203Z" fill="#D8D8D8"/>
<path fill-rule="evenodd" clip-rule="evenodd" d="M21.6567 9.83203L21.6567 11.9694L19.5335 11.9694L19.5335 9.83203L21.6567 9.83203Z" fill="#D8D8D8"/>
<path fill-rule="evenodd" clip-rule="evenodd" d="M11.8899 9.83203L11.8899 11.9694L9.76669 11.9694L9.76669 9.83203L11.8899 9.83203Z" fill="#D8D8D8"/>
<path fill-rule="evenodd" clip-rule="evenodd" d="M2.12329 9.83203L2.12329 11.9694L8.62141e-05 11.9694L8.63075e-05 9.83203L2.12329 9.83203Z" fill="#D8D8D8"/>
<path fill-rule="evenodd" clip-rule="evenodd" d="M31.4233 19.4502L31.4233 21.5876L29.3001 21.5876L29.3001 19.4502L31.4233 19.4502Z" fill="#D8D8D8"/>
<path fill-rule="evenodd" clip-rule="evenodd" d="M21.6567 19.4502L21.6567 21.5876L19.5335 21.5876L19.5335 19.4502L21.6567 19.4502Z" fill="#D8D8D8"/>
<path fill-rule="evenodd" clip-rule="evenodd" d="M11.8899 19.4502L11.8899 21.5876L9.76669 21.5876L9.76669 19.4502L11.8899 19.4502Z" fill="#D8D8D8"/>
<path fill-rule="evenodd" clip-rule="evenodd" d="M2.12329 19.4502L2.12329 21.5876L8.62141e-05 21.5876L8.63075e-05 19.4502L2.12329 19.4502Z" fill="#D8D8D8"/>
<path fill-rule="evenodd" clip-rule="evenodd" d="M31.4233 29.2822L31.4233 31.4196L29.3001 31.4196L29.3001 29.2822L31.4233 29.2822Z" fill="#D8D8D8"/>
<path fill-rule="evenodd" clip-rule="evenodd" d="M21.6567 29.2827L21.6567 31.4201L19.5335 31.4201L19.5335 29.2827L21.6567 29.2827Z" fill="#D8D8D8"/>
<path fill-rule="evenodd" clip-rule="evenodd" d="M11.8899 29.2822L11.8899 31.4196L9.76669 31.4196L9.76669 29.2822L11.8899 29.2822Z" fill="#D8D8D8"/>
<path fill-rule="evenodd" clip-rule="evenodd" d="M2.12329 29.2822L2.12329 31.4196L8.62141e-05 31.4196L8.63075e-05 29.2822L2.12329 29.2822Z" fill="#D8D8D8"/>
<path fill-rule="evenodd" clip-rule="evenodd" d="M109 38.7837L109 40.9211L106.877 40.9211L106.877 38.7837L109 38.7837Z" fill="#D8D8D8"/>
<path fill-rule="evenodd" clip-rule="evenodd" d="M99.2334 38.7837L99.2334 40.9211L97.1102 40.9211L97.1102 38.7837L99.2334 38.7837Z" fill="#D8D8D8"/>
<path fill-rule="evenodd" clip-rule="evenodd" d="M89.4666 38.7837L89.4666 40.9211L87.3433 40.9211L87.3433 38.7837L89.4666 38.7837Z" fill="#D8D8D8"/>
<path fill-rule="evenodd" clip-rule="evenodd" d="M79.6997 38.7837L79.6997 40.9211L77.5765 40.9211L77.5765 38.7837L79.6997 38.7837Z" fill="#D8D8D8"/>
<path fill-rule="evenodd" clip-rule="evenodd" d="M109 48.6157L109 50.7531L106.877 50.7531L106.877 48.6157L109 48.6157Z" fill="#D8D8D8"/>
<path fill-rule="evenodd" clip-rule="evenodd" d="M99.2334 48.6157L99.2334 50.7531L97.1102 50.7531L97.1102 48.6157L99.2334 48.6157Z" fill="#D8D8D8"/>
<path fill-rule="evenodd" clip-rule="evenodd" d="M89.4666 48.6157L89.4666 50.7531L87.3433 50.7531L87.3433 48.6157L89.4666 48.6157Z" fill="#D8D8D8"/>
<path fill-rule="evenodd" clip-rule="evenodd" d="M79.6997 48.6157L79.6997 50.7531L77.5765 50.7531L77.5765 48.6157L79.6997 48.6157Z" fill="#D8D8D8"/>
<path fill-rule="evenodd" clip-rule="evenodd" d="M109 58.2339L109 60.3713L106.877 60.3713L106.877 58.2339L109 58.2339Z" fill="#D8D8D8"/>
<path fill-rule="evenodd" clip-rule="evenodd" d="M99.2334 58.2344L99.2334 60.3718L97.1102 60.3718L97.1102 58.2344L99.2334 58.2344Z" fill="#D8D8D8"/>
<path fill-rule="evenodd" clip-rule="evenodd" d="M89.4666 58.2339L89.4666 60.3713L87.3433 60.3713L87.3433 58.2339L89.4666 58.2339Z" fill="#D8D8D8"/>
<path fill-rule="evenodd" clip-rule="evenodd" d="M79.6997 58.2339L79.6997 60.3713L77.5765 60.3713L77.5765 58.2339L79.6997 58.2339Z" fill="#D8D8D8"/>
<path fill-rule="evenodd" clip-rule="evenodd" d="M109 68.0659L109 70.2033L106.877 70.2033L106.877 68.0659L109 68.0659Z" fill="#D8D8D8"/>
<path fill-rule="evenodd" clip-rule="evenodd" d="M99.2334 68.0664L99.2334 70.2038L97.1102 70.2038L97.1102 68.0664L99.2334 68.0664Z" fill="#D8D8D8"/>
<path fill-rule="evenodd" clip-rule="evenodd" d="M89.4666 68.0659L89.4666 70.2033L87.3433 70.2033L87.3433 68.0659L89.4666 68.0659Z" fill="#D8D8D8"/>
<path fill-rule="evenodd" clip-rule="evenodd" d="M79.6997 68.0659L79.6997 70.2033L77.5765 70.2033L77.5765 68.0659L79.6997 68.0659Z" fill="#D8D8D8"/>
<path fill-rule="evenodd" clip-rule="evenodd" d="M70.2114 38.7837L70.2114 40.9211L68.0882 40.9211L68.0882 38.7837L70.2114 38.7837Z" fill="#D7D7D7"/>
<path fill-rule="evenodd" clip-rule="evenodd" d="M60.4451 38.7837L60.4451 40.9211L58.3219 40.9211L58.3219 38.7837L60.4451 38.7837Z" fill="#D8D8D8"/>
<path fill-rule="evenodd" clip-rule="evenodd" d="M50.6785 38.7837L50.6785 40.9211L48.5553 40.9211L48.5553 38.7837L50.6785 38.7837Z" fill="#D8D8D8"/>
<path fill-rule="evenodd" clip-rule="evenodd" d="M40.9114 38.7837L40.9114 40.9211L38.7882 40.9211L38.7882 38.7837L40.9114 38.7837Z" fill="#D8D8D8"/>
<path fill-rule="evenodd" clip-rule="evenodd" d="M70.2114 48.6157L70.2114 50.7531L68.0882 50.7531L68.0882 48.6157L70.2114 48.6157Z" fill="#D8D8D8"/>
<path fill-rule="evenodd" clip-rule="evenodd" d="M60.4451 48.6157L60.4451 50.7531L58.3219 50.7531L58.3219 48.6157L60.4451 48.6157Z" fill="#D8D8D8"/>
<path fill-rule="evenodd" clip-rule="evenodd" d="M50.6785 48.6157L50.6785 50.7531L48.5553 50.7531L48.5553 48.6157L50.6785 48.6157Z" fill="#D8D8D8"/>
<path fill-rule="evenodd" clip-rule="evenodd" d="M40.9114 48.6157L40.9114 50.7531L38.7882 50.7531L38.7882 48.6157L40.9114 48.6157Z" fill="#D8D8D8"/>
<path fill-rule="evenodd" clip-rule="evenodd" d="M70.2114 58.2344L70.2114 60.3718L68.0882 60.3718L68.0882 58.2344L70.2114 58.2344Z" fill="#D8D8D8"/>
<path fill-rule="evenodd" clip-rule="evenodd" d="M60.4451 58.2339L60.4451 60.3713L58.3219 60.3713L58.3219 58.2339L60.4451 58.2339Z" fill="#D8D8D8"/>
<path fill-rule="evenodd" clip-rule="evenodd" d="M50.6785 58.2344L50.6785 60.3718L48.5553 60.3718L48.5553 58.2344L50.6785 58.2344Z" fill="#D8D8D8"/>
<path fill-rule="evenodd" clip-rule="evenodd" d="M40.9114 58.2344L40.9114 60.3718L38.7882 60.3718L38.7882 58.2344L40.9114 58.2344Z" fill="#D8D8D8"/>
<path fill-rule="evenodd" clip-rule="evenodd" d="M70.2114 68.0664L70.2114 70.2038L68.0882 70.2038L68.0882 68.0664L70.2114 68.0664Z" fill="#D8D8D8"/>
<path fill-rule="evenodd" clip-rule="evenodd" d="M60.4451 68.0659L60.4451 70.2033L58.3219 70.2033L58.3219 68.0659L60.4451 68.0659Z" fill="#D8D8D8"/>
<path fill-rule="evenodd" clip-rule="evenodd" d="M50.6785 68.0664L50.6785 70.2038L48.5553 70.2038L48.5553 68.0664L50.6785 68.0664Z" fill="#D8D8D8"/>
<path fill-rule="evenodd" clip-rule="evenodd" d="M40.9114 68.0664L40.9114 70.2038L38.7882 70.2038L38.7882 68.0664L40.9114 68.0664Z" fill="#D8D8D8"/>
<path fill-rule="evenodd" clip-rule="evenodd" d="M21.6567 38.7837L21.6567 40.9211L19.5335 40.9211L19.5335 38.7837L21.6567 38.7837Z" fill="#D8D8D8"/>
<path fill-rule="evenodd" clip-rule="evenodd" d="M11.8899 38.7837L11.8899 40.9211L9.76669 40.9211L9.76669 38.7837L11.8899 38.7837Z" fill="#D8D8D8"/>
<path fill-rule="evenodd" clip-rule="evenodd" d="M2.12329 38.7837L2.12329 40.9211L8.62141e-05 40.9211L8.63075e-05 38.7837L2.12329 38.7837Z" fill="#D8D8D8"/>
<path fill-rule="evenodd" clip-rule="evenodd" d="M21.6567 48.6157L21.6567 50.7531L19.5335 50.7531L19.5335 48.6157L21.6567 48.6157Z" fill="#D8D8D8"/>
<path fill-rule="evenodd" clip-rule="evenodd" d="M11.8899 48.6157L11.8899 50.7531L9.76669 50.7531L9.76669 48.6157L11.8899 48.6157Z" fill="#D8D8D8"/>
<path fill-rule="evenodd" clip-rule="evenodd" d="M2.12329 48.6157L2.12329 50.7531L8.62141e-05 50.7531L8.63075e-05 48.6157L2.12329 48.6157Z" fill="#D8D8D8"/>
<path fill-rule="evenodd" clip-rule="evenodd" d="M21.6567 58.2344L21.6567 60.3718L19.5335 60.3718L19.5335 58.2344L21.6567 58.2344Z" fill="#D8D8D8"/>
<path fill-rule="evenodd" clip-rule="evenodd" d="M11.8899 58.2339L11.8899 60.3713L9.76669 60.3713L9.76669 58.2339L11.8899 58.2339Z" fill="#D8D8D8"/>
<path fill-rule="evenodd" clip-rule="evenodd" d="M2.12329 58.2339L2.12329 60.3713L8.62141e-05 60.3713L8.63075e-05 58.2339L2.12329 58.2339Z" fill="#D8D8D8"/>
<path fill-rule="evenodd" clip-rule="evenodd" d="M21.6567 68.0664L21.6567 70.2038L19.5335 70.2038L19.5335 68.0664L21.6567 68.0664Z" fill="#D8D8D8"/>
<path fill-rule="evenodd" clip-rule="evenodd" d="M11.8899 68.0659L11.8899 70.2033L9.76669 70.2033L9.76669 68.0659L11.8899 68.0659Z" fill="#D8D8D8"/>
<path fill-rule="evenodd" clip-rule="evenodd" d="M2.12329 68.0659L2.12329 70.2033L8.62141e-05 70.2033L8.63075e-05 68.0659L2.12329 68.0659Z" fill="#D8D8D8"/>
<path fill-rule="evenodd" clip-rule="evenodd" d="M29.208 48.6157H31.3457V50.7387H29.208V48.6157Z" fill="#01114A"/>
<path fill-rule="evenodd" clip-rule="evenodd" d="M29.208 58.3628H31.3457V60.4858H29.208V58.3628Z" fill="#01114A"/>
<path fill-rule="evenodd" clip-rule="evenodd" d="M29.208 68.1094H31.3457V70.2323H29.208V68.1094Z" fill="#01114A"/>
<path fill-rule="evenodd" clip-rule="evenodd" d="M29.2439 38.9873H31.3815V41.1103H29.2439V38.9873Z" fill="#00BCE8"/>
</g>
<defs>
<clipPath id="clip0_1663_5354">
<rect width="109" height="70" fill="white"/>
</clipPath>
</defs>
</svg>
