<svg width="160" height="100" viewBox="0 0 160 100" fill="none" xmlns="http://www.w3.org/2000/svg">
<g clip-path="url(#clip0_627_4486)">
<path fill-rule="evenodd" clip-rule="evenodd" d="M160 0L160 3.05343L156.883 3.05343L156.883 -1.35219e-07L160 0Z" fill="#D8D8D8"/>
<path fill-rule="evenodd" clip-rule="evenodd" d="M145.664 0L145.664 3.05343L142.547 3.05343L142.547 -1.34221e-07L145.664 0Z" fill="#D8D8D8"/>
<path fill-rule="evenodd" clip-rule="evenodd" d="M131.327 0L131.327 3.05343L128.21 3.05343L128.21 -1.34221e-07L131.327 0Z" fill="#D8D8D8"/>
<path fill-rule="evenodd" clip-rule="evenodd" d="M116.99 0L116.99 3.05343L113.874 3.05343L113.874 -1.34221e-07L116.99 0Z" fill="#D8D8D8"/>
<path fill-rule="evenodd" clip-rule="evenodd" d="M160 14.0459L160 17.0993L156.883 17.0993L156.883 14.0459L160 14.0459Z" fill="#D8D8D8"/>
<path fill-rule="evenodd" clip-rule="evenodd" d="M145.664 14.0459L145.664 17.0993L142.547 17.0993L142.547 14.0459L145.664 14.0459Z" fill="#D8D8D8"/>
<path fill-rule="evenodd" clip-rule="evenodd" d="M131.327 14.0459L131.327 17.0993L128.21 17.0993L128.21 14.0459L131.327 14.0459Z" fill="#D8D8D8"/>
<path fill-rule="evenodd" clip-rule="evenodd" d="M116.99 14.0459L116.99 17.0993L113.874 17.0993L113.874 14.0459L116.99 14.0459Z" fill="#D8D8D8"/>
<path fill-rule="evenodd" clip-rule="evenodd" d="M160 27.7861L160 30.8396L156.883 30.8396L156.883 27.7861L160 27.7861Z" fill="#D8D8D8"/>
<path fill-rule="evenodd" clip-rule="evenodd" d="M145.664 27.7861L145.664 30.8396L142.547 30.8396L142.547 27.7861L145.664 27.7861Z" fill="#D8D8D8"/>
<path fill-rule="evenodd" clip-rule="evenodd" d="M131.327 27.7861L131.327 30.8396L128.21 30.8396L128.21 27.7861L131.327 27.7861Z" fill="#D8D8D8"/>
<path fill-rule="evenodd" clip-rule="evenodd" d="M116.99 27.7861L116.99 30.8396L113.874 30.8396L113.874 27.7861L116.99 27.7861Z" fill="#D8D8D8"/>
<path fill-rule="evenodd" clip-rule="evenodd" d="M160 41.832L160 44.8855L156.883 44.8855L156.883 41.832L160 41.832Z" fill="#D8D8D8"/>
<path fill-rule="evenodd" clip-rule="evenodd" d="M145.664 41.832L145.664 44.8855L142.547 44.8855L142.547 41.832L145.664 41.832Z" fill="#D8D8D8"/>
<path fill-rule="evenodd" clip-rule="evenodd" d="M131.327 41.832L131.327 44.8855L128.21 44.8855L128.21 41.832L131.327 41.832Z" fill="#D8D8D8"/>
<path fill-rule="evenodd" clip-rule="evenodd" d="M116.99 41.832L116.99 44.8855L113.874 44.8855L113.874 41.832L116.99 41.832Z" fill="#D8D8D8"/>
<path fill-rule="evenodd" clip-rule="evenodd" d="M103.063 0L103.063 3.05343L99.9461 3.05343L99.9461 -1.34221e-07L103.063 0Z" fill="#D8D8D8"/>
<path fill-rule="evenodd" clip-rule="evenodd" d="M88.7266 0L88.7266 3.05343L85.6099 3.05343L85.6099 -1.34221e-07L88.7266 0Z" fill="#D8D8D8"/>
<path fill-rule="evenodd" clip-rule="evenodd" d="M74.3903 0L74.3903 3.05343L71.2736 3.05343L71.2736 -1.34221e-07L74.3903 0Z" fill="#D8D8D8"/>
<path fill-rule="evenodd" clip-rule="evenodd" d="M60.0533 0L60.0533 3.05343L56.9367 3.05343L56.9367 -1.34221e-07L60.0533 0Z" fill="#D8D8D8"/>
<path fill-rule="evenodd" clip-rule="evenodd" d="M103.063 14.0459L103.063 17.0993L99.9461 17.0993L99.9461 14.0459L103.063 14.0459Z" fill="#D8D8D8"/>
<path fill-rule="evenodd" clip-rule="evenodd" d="M88.7266 14.0459L88.7266 17.0993L85.6099 17.0993L85.6099 14.0459L88.7266 14.0459Z" fill="#D8D8D8"/>
<path fill-rule="evenodd" clip-rule="evenodd" d="M74.3903 14.0459L74.3903 17.0993L71.2736 17.0993L71.2736 14.0459L74.3903 14.0459Z" fill="#D8D8D8"/>
<path fill-rule="evenodd" clip-rule="evenodd" d="M60.0533 14.0459L60.0533 17.0993L56.9367 17.0993L56.9367 14.0459L60.0533 14.0459Z" fill="#D8D8D8"/>
<path fill-rule="evenodd" clip-rule="evenodd" d="M103.063 27.7861L103.063 30.8396L99.9461 30.8396L99.9461 27.7861L103.063 27.7861Z" fill="#D8D8D8"/>
<path fill-rule="evenodd" clip-rule="evenodd" d="M88.7266 27.7861L88.7266 30.8396L85.6099 30.8396L85.6099 27.7861L88.7266 27.7861Z" fill="#D8D8D8"/>
<path fill-rule="evenodd" clip-rule="evenodd" d="M74.3903 27.7861L74.3903 30.8396L71.2736 30.8396L71.2736 27.7861L74.3903 27.7861Z" fill="#D8D8D8"/>
<path fill-rule="evenodd" clip-rule="evenodd" d="M60.0533 27.7861L60.0533 30.8396L56.9367 30.8396L56.9367 27.7861L60.0533 27.7861Z" fill="#D8D8D8"/>
<path fill-rule="evenodd" clip-rule="evenodd" d="M103.063 41.832L103.063 44.8855L99.9461 44.8855L99.9461 41.832L103.063 41.832Z" fill="#D8D8D8"/>
<path fill-rule="evenodd" clip-rule="evenodd" d="M88.7266 41.832L88.7266 44.8855L85.6099 44.8855L85.6099 41.832L88.7266 41.832Z" fill="#D8D8D8"/>
<path fill-rule="evenodd" clip-rule="evenodd" d="M74.3903 41.832L74.3903 44.8855L71.2736 44.8855L71.2736 41.832L74.3903 41.832Z" fill="#D8D8D8"/>
<path fill-rule="evenodd" clip-rule="evenodd" d="M60.0533 41.832L60.0533 44.8855L56.9367 44.8855L56.9367 41.832L60.0533 41.832Z" fill="#D8D8D8"/>
<path fill-rule="evenodd" clip-rule="evenodd" d="M46.1261 0L46.1261 3.05343L43.0095 3.05343L43.0095 -1.34221e-07L46.1261 0Z" fill="#D7D7D8"/>
<path fill-rule="evenodd" clip-rule="evenodd" d="M31.7899 0L31.7899 3.05343L28.6733 3.05343L28.6733 -1.34221e-07L31.7899 0Z" fill="#D8D8D8"/>
<path fill-rule="evenodd" clip-rule="evenodd" d="M17.4531 0L17.4531 3.05343L14.3365 3.05343L14.3365 -1.34221e-07L17.4531 0Z" fill="#D8D8D8"/>
<path fill-rule="evenodd" clip-rule="evenodd" d="M3.1167 0L3.1167 3.05343L6.82906e-05 3.05343L6.84261e-05 -1.34221e-07L3.1167 0Z" fill="#D8D8D8"/>
<path fill-rule="evenodd" clip-rule="evenodd" d="M46.1261 14.0459L46.1261 17.0993L43.0095 17.0993L43.0095 14.0459L46.1261 14.0459Z" fill="#D8D8D8"/>
<path fill-rule="evenodd" clip-rule="evenodd" d="M31.7899 14.0459L31.7899 17.0993L28.6733 17.0993L28.6733 14.0459L31.7899 14.0459Z" fill="#D8D8D8"/>
<path fill-rule="evenodd" clip-rule="evenodd" d="M17.4531 14.0459L17.4531 17.0993L14.3365 17.0993L14.3365 14.0459L17.4531 14.0459Z" fill="#D8D8D8"/>
<path fill-rule="evenodd" clip-rule="evenodd" d="M3.11658 14.0459L3.11658 17.0993L-5.37824e-05 17.0993L-5.36442e-05 14.0459L3.11658 14.0459Z" fill="#D8D8D8"/>
<path fill-rule="evenodd" clip-rule="evenodd" d="M46.1261 27.7861L46.1261 30.8396L43.0095 30.8396L43.0095 27.7861L46.1261 27.7861Z" fill="#D8D8D8"/>
<path fill-rule="evenodd" clip-rule="evenodd" d="M31.7899 27.7861L31.7899 30.8396L28.6733 30.8396L28.6733 27.7861L31.7899 27.7861Z" fill="#D8D8D8"/>
<path fill-rule="evenodd" clip-rule="evenodd" d="M17.4531 27.7861L17.4531 30.8396L14.3365 30.8396L14.3365 27.7861L17.4531 27.7861Z" fill="#D8D8D8"/>
<path fill-rule="evenodd" clip-rule="evenodd" d="M3.11658 27.7861L3.11658 30.8396L-5.37824e-05 30.8396L-5.36442e-05 27.7861L3.11658 27.7861Z" fill="#D8D8D8"/>
<path fill-rule="evenodd" clip-rule="evenodd" d="M46.1261 41.832L46.1261 44.8855L43.0095 44.8855L43.0095 41.832L46.1261 41.832Z" fill="#D8D8D8"/>
<path fill-rule="evenodd" clip-rule="evenodd" d="M31.7899 41.832L31.7899 44.8855L28.6733 44.8855L28.6733 41.832L31.7899 41.832Z" fill="#D8D8D8"/>
<path fill-rule="evenodd" clip-rule="evenodd" d="M17.4531 41.832L17.4531 44.8855L14.3365 44.8855L14.3365 41.832L17.4531 41.832Z" fill="#D8D8D8"/>
<path fill-rule="evenodd" clip-rule="evenodd" d="M3.11658 41.832L3.11658 44.8855L-5.37824e-05 44.8855L-5.36442e-05 41.832L3.11658 41.832Z" fill="#D8D8D8"/>
<path fill-rule="evenodd" clip-rule="evenodd" d="M160 55.4053L160 58.4587L156.883 58.4587L156.883 55.4053L160 55.4053Z" fill="#D8D8D8"/>
<path fill-rule="evenodd" clip-rule="evenodd" d="M145.664 55.4053L145.664 58.4587L142.547 58.4587L142.547 55.4053L145.664 55.4053Z" fill="#D8D8D8"/>
<path fill-rule="evenodd" clip-rule="evenodd" d="M131.327 55.4053L131.327 58.4587L128.21 58.4587L128.21 55.4053L131.327 55.4053Z" fill="#D8D8D8"/>
<path fill-rule="evenodd" clip-rule="evenodd" d="M116.99 55.4053L116.99 58.4587L113.874 58.4587L113.874 55.4053L116.99 55.4053Z" fill="#D8D8D8"/>
<path fill-rule="evenodd" clip-rule="evenodd" d="M160 69.4512L160 72.5046L156.883 72.5046L156.883 69.4512L160 69.4512Z" fill="#D8D8D8"/>
<path fill-rule="evenodd" clip-rule="evenodd" d="M145.664 69.4512L145.664 72.5046L142.547 72.5046L142.547 69.4512L145.664 69.4512Z" fill="#D8D8D8"/>
<path fill-rule="evenodd" clip-rule="evenodd" d="M131.327 69.4512L131.327 72.5046L128.21 72.5046L128.21 69.4512L131.327 69.4512Z" fill="#D8D8D8"/>
<path fill-rule="evenodd" clip-rule="evenodd" d="M116.99 69.4512L116.99 72.5046L113.874 72.5046L113.874 69.4512L116.99 69.4512Z" fill="#D8D8D8"/>
<path fill-rule="evenodd" clip-rule="evenodd" d="M160 83.1914L160 86.2448L156.883 86.2448L156.883 83.1914L160 83.1914Z" fill="#D8D8D8"/>
<path fill-rule="evenodd" clip-rule="evenodd" d="M145.664 83.1919L145.664 86.2453L142.547 86.2453L142.547 83.1919L145.664 83.1919Z" fill="#D8D8D8"/>
<path fill-rule="evenodd" clip-rule="evenodd" d="M131.327 83.1914L131.327 86.2448L128.21 86.2448L128.21 83.1914L131.327 83.1914Z" fill="#D8D8D8"/>
<path fill-rule="evenodd" clip-rule="evenodd" d="M116.99 83.1914L116.99 86.2448L113.874 86.2448L113.874 83.1914L116.99 83.1914Z" fill="#D8D8D8"/>
<path fill-rule="evenodd" clip-rule="evenodd" d="M160 97.2373L160 100.291L156.883 100.291L156.883 97.2373L160 97.2373Z" fill="#D8D8D8"/>
<path fill-rule="evenodd" clip-rule="evenodd" d="M145.664 97.2373L145.664 100.291L142.547 100.291L142.547 97.2373L145.664 97.2373Z" fill="#D8D8D8"/>
<path fill-rule="evenodd" clip-rule="evenodd" d="M131.327 97.2373L131.327 100.291L128.21 100.291L128.21 97.2373L131.327 97.2373Z" fill="#D8D8D8"/>
<path fill-rule="evenodd" clip-rule="evenodd" d="M116.99 97.2373L116.99 100.291L113.874 100.291L113.874 97.2373L116.99 97.2373Z" fill="#D8D8D8"/>
<path fill-rule="evenodd" clip-rule="evenodd" d="M103.063 55.4053L103.063 58.4587L99.9461 58.4587L99.9461 55.4053L103.063 55.4053Z" fill="#D7D7D7"/>
<path fill-rule="evenodd" clip-rule="evenodd" d="M88.7266 55.4053L88.7266 58.4587L85.6099 58.4587L85.6099 55.4053L88.7266 55.4053Z" fill="#D8D8D8"/>
<path fill-rule="evenodd" clip-rule="evenodd" d="M74.3903 55.4053L74.3903 58.4587L71.2736 58.4587L71.2736 55.4053L74.3903 55.4053Z" fill="#D8D8D8"/>
<path fill-rule="evenodd" clip-rule="evenodd" d="M60.0533 55.4053L60.0533 58.4587L56.9367 58.4587L56.9367 55.4053L60.0533 55.4053Z" fill="#D8D8D8"/>
<path fill-rule="evenodd" clip-rule="evenodd" d="M103.063 69.4512L103.063 72.5046L99.9461 72.5046L99.9461 69.4512L103.063 69.4512Z" fill="#D8D8D8"/>
<path fill-rule="evenodd" clip-rule="evenodd" d="M88.7266 69.4512L88.7266 72.5046L85.6099 72.5046L85.6099 69.4512L88.7266 69.4512Z" fill="#D8D8D8"/>
<path fill-rule="evenodd" clip-rule="evenodd" d="M74.3903 69.4512L74.3903 72.5046L71.2736 72.5046L71.2736 69.4512L74.3903 69.4512Z" fill="#D8D8D8"/>
<path fill-rule="evenodd" clip-rule="evenodd" d="M60.0533 69.4512L60.0533 72.5046L56.9367 72.5046L56.9367 69.4512L60.0533 69.4512Z" fill="#D8D8D8"/>
<path fill-rule="evenodd" clip-rule="evenodd" d="M103.063 83.1919L103.063 86.2453L99.9461 86.2453L99.9461 83.1919L103.063 83.1919Z" fill="#D8D8D8"/>
<path fill-rule="evenodd" clip-rule="evenodd" d="M88.7266 83.1914L88.7266 86.2448L85.6099 86.2448L85.6099 83.1914L88.7266 83.1914Z" fill="#D8D8D8"/>
<path fill-rule="evenodd" clip-rule="evenodd" d="M74.3903 83.1919L74.3903 86.2453L71.2736 86.2453L71.2736 83.1919L74.3903 83.1919Z" fill="#D8D8D8"/>
<path fill-rule="evenodd" clip-rule="evenodd" d="M60.0533 83.1919L60.0533 86.2453L56.9367 86.2453L56.9367 83.1919L60.0533 83.1919Z" fill="#D8D8D8"/>
<path fill-rule="evenodd" clip-rule="evenodd" d="M103.063 97.2373L103.063 100.291L99.9461 100.291L99.9461 97.2373L103.063 97.2373Z" fill="#D8D8D8"/>
<path fill-rule="evenodd" clip-rule="evenodd" d="M88.7266 97.2373L88.7266 100.291L85.6099 100.291L85.6099 97.2373L88.7266 97.2373Z" fill="#D8D8D8"/>
<path fill-rule="evenodd" clip-rule="evenodd" d="M74.3903 97.2373L74.3903 100.291L71.2736 100.291L71.2736 97.2373L74.3903 97.2373Z" fill="#D8D8D8"/>
<path fill-rule="evenodd" clip-rule="evenodd" d="M60.0533 97.2373L60.0533 100.291L56.9367 100.291L56.9367 97.2373L60.0533 97.2373Z" fill="#D8D8D8"/>
<path fill-rule="evenodd" clip-rule="evenodd" d="M31.7899 55.4053L31.7899 58.4587L28.6733 58.4587L28.6733 55.4053L31.7899 55.4053Z" fill="#D8D8D8"/>
<path fill-rule="evenodd" clip-rule="evenodd" d="M17.4531 55.4053L17.4531 58.4587L14.3365 58.4587L14.3365 55.4053L17.4531 55.4053Z" fill="#D8D8D8"/>
<path fill-rule="evenodd" clip-rule="evenodd" d="M3.11658 55.4053L3.11658 58.4587L-5.37824e-05 58.4587L-5.36442e-05 55.4053L3.11658 55.4053Z" fill="#D8D8D8"/>
<path fill-rule="evenodd" clip-rule="evenodd" d="M31.7899 69.4512L31.7899 72.5046L28.6733 72.5046L28.6733 69.4512L31.7899 69.4512Z" fill="#D8D8D8"/>
<path fill-rule="evenodd" clip-rule="evenodd" d="M17.4531 69.4512L17.4531 72.5046L14.3365 72.5046L14.3365 69.4512L17.4531 69.4512Z" fill="#D8D8D8"/>
<path fill-rule="evenodd" clip-rule="evenodd" d="M3.11658 69.4512L3.11658 72.5046L-5.37824e-05 72.5046L-5.36442e-05 69.4512L3.11658 69.4512Z" fill="#D8D8D8"/>
<path fill-rule="evenodd" clip-rule="evenodd" d="M31.7899 83.1919L31.7899 86.2453L28.6733 86.2453L28.6733 83.1919L31.7899 83.1919Z" fill="#D8D8D8"/>
<path fill-rule="evenodd" clip-rule="evenodd" d="M17.4531 83.1914L17.4531 86.2448L14.3365 86.2448L14.3365 83.1914L17.4531 83.1914Z" fill="#D8D8D8"/>
<path fill-rule="evenodd" clip-rule="evenodd" d="M3.11658 83.1914L3.11658 86.2448L-5.37824e-05 86.2448L-5.36442e-05 83.1914L3.11658 83.1914Z" fill="#D8D8D8"/>
<path fill-rule="evenodd" clip-rule="evenodd" d="M31.7899 97.2373L31.7899 100.291L28.6733 100.291L28.6733 97.2373L31.7899 97.2373Z" fill="#D8D8D8"/>
<path fill-rule="evenodd" clip-rule="evenodd" d="M17.4531 97.2373L17.4531 100.291L14.3365 100.291L14.3365 97.2373L17.4531 97.2373Z" fill="#D8D8D8"/>
<path fill-rule="evenodd" clip-rule="evenodd" d="M3.11658 97.2373L3.11658 100.291L-5.37824e-05 100.291L-5.36442e-05 97.2373L3.11658 97.2373Z" fill="#D8D8D8"/>
<path fill-rule="evenodd" clip-rule="evenodd" d="M42.8741 69.4512H46.012V72.484H42.8741V69.4512Z" fill="#01114A"/>
<path fill-rule="evenodd" clip-rule="evenodd" d="M42.8741 83.375H46.012V86.4078H42.8741V83.375Z" fill="#01114A"/>
<path fill-rule="evenodd" clip-rule="evenodd" d="M42.8741 97.2993H46.012V100.332H42.8741V97.2993Z" fill="#01114A"/>
<path fill-rule="evenodd" clip-rule="evenodd" d="M42.9269 55.6963H46.0647V58.7291H42.9269V55.6963Z" fill="#00BCE8"/>
</g>
<defs>
<clipPath id="clip0_627_4486">
<rect width="160" height="100" fill="white"/>
</clipPath>
</defs>
</svg>
